<svg width="20" height="20" viewBox="0 0 20 20" fill="none" xmlns="http://www.w3.org/2000/svg">
<rect x="2" y="16.8572" width="16" height="1.14275" rx="0.571376" fill="#333333"/>
<path d="M3.14282 12.1434C3.14282 11.5911 3.59054 11.1434 4.14282 11.1434H15.8571C16.4094 11.1434 16.8571 11.5911 16.8571 12.1434V16.8572H3.14282V12.1434Z" fill="#333333"/>
<path d="M4.28564 7.57251C4.28564 7.02022 4.73336 6.57251 5.28564 6.57251H14.7142C15.2665 6.57251 15.7142 7.02023 15.7142 7.57251V11.1435H4.28564V7.57251Z" fill="#333333"/>
<rect x="6.83423" y="4.28699" width="0.685714" height="2.28551" fill="#333333"/>
<rect x="9.65698" y="4.28699" width="0.685714" height="2.28551" fill="#333333"/>
<rect x="12.48" y="4.28699" width="0.685715" height="2.28551" fill="#333333"/>
<path d="M7.17714 2.00003C7.2642 2.28298 7.74857 2.45643 7.74857 2.82946C7.74857 3.14815 7.49273 3.40649 7.17714 3.40649C6.86155 3.40649 6.60571 3.14815 6.60571 2.82946C6.60571 2.45643 7.09021 2.28265 7.17714 2.00003Z" fill="#333333"/>
<path d="M9.9999 2.00003C10.0869 2.28298 10.5713 2.45643 10.5713 2.82946C10.5713 3.14815 10.3155 3.40649 9.9999 3.40649C9.6843 3.40649 9.42847 3.14815 9.42847 2.82946C9.42847 2.45643 9.91296 2.28265 9.9999 2.00003Z" fill="#333333"/>
<path d="M12.8229 2.00003C12.9099 2.28298 13.3943 2.45643 13.3943 2.82946C13.3943 3.14815 13.1385 3.40649 12.8229 3.40649C12.5073 3.40649 12.2515 3.14815 12.2515 2.82946C12.2515 2.45643 12.736 2.28265 12.8229 2.00003Z" fill="#333333"/>
</svg>
