<svg width="20" height="20" viewBox="0 0 20 20" fill="none" xmlns="http://www.w3.org/2000/svg">
<mask id="path-1-inside-1_731_569" fill="white">
<rect x="2" y="2" width="13.6" height="16" rx="1"/>
</mask>
<rect x="2" y="2" width="13.6" height="16" rx="1" stroke="#333333" stroke-width="4" mask="url(#path-1-inside-1_731_569)"/>
<path d="M15.6001 2.80005L17.2001 2.80006C17.2001 2.80006 18.0001 2.80006 18.0001 3.37148C18.0001 3.37148 18.0001 5.65719 18.0001 6.22862C18.0001 6.80005 17.2001 6.80005 17.2001 6.80005H15.6001V2.80005Z" fill="#333333"/>
<path d="M15.6001 7.59998L17.2001 7.59999C17.2001 7.59999 18.0001 7.59999 18.0001 8.1714C18.0001 8.1714 18.0001 10.4571 18.0001 11.0285C18.0001 11.6 17.2001 11.6 17.2001 11.6H15.6001V7.59998Z" fill="#333333"/>
<rect x="5.19995" y="6" width="7.2" height="3.2" rx="1" fill="#333333"/>
</svg>
