<svg width="20" height="20" viewBox="0 0 20 20" fill="none" xmlns="http://www.w3.org/2000/svg">
<path d="M9.99658 3.44156C12.1331 3.44156 12.3839 3.45108 13.2283 3.48918C14.0093 3.52411 14.4315 3.6543 14.714 3.76543C15.0886 3.91149 15.3553 4.08295 15.6347 4.36237C15.914 4.64179 16.0886 4.90851 16.2315 5.28319C16.3394 5.56579 16.4728 5.98809 16.5077 6.7692C16.5458 7.61381 16.5553 7.86466 16.5553 10.0016C16.5553 12.1385 16.5458 12.3894 16.5077 13.234C16.4728 14.0151 16.3426 14.4374 16.2315 14.72C16.0855 15.0947 15.914 15.3614 15.6347 15.6408C15.3553 15.9202 15.0886 16.0949 14.714 16.2377C14.4315 16.3457 14.0093 16.4791 13.2283 16.514C12.3839 16.5521 12.1331 16.5616 9.99658 16.5616C7.86007 16.5616 7.60928 16.5521 6.76484 16.514C5.98388 16.4791 5.56166 16.3489 5.27912 16.2377C4.90452 16.0917 4.63785 15.9202 4.35849 15.6408C4.07912 15.3614 3.90452 15.0947 3.76166 14.72C3.65372 14.4374 3.52039 14.0151 3.48547 13.234C3.44737 12.3894 3.43785 12.1385 3.43785 10.0016C3.43785 7.86466 3.44737 7.61381 3.48547 6.7692C3.52039 5.98809 3.65055 5.56579 3.76166 5.28319C3.90769 4.90851 4.07912 4.64179 4.35849 4.36237C4.63785 4.08295 4.90452 3.90832 5.27912 3.76543C5.56166 3.65747 5.98388 3.52411 6.76484 3.48918C7.60928 3.44791 7.86325 3.44156 9.99658 3.44156ZM9.99658 2C7.82515 2 7.55214 2.00953 6.69817 2.04763C5.84738 2.08573 5.26642 2.22227 4.75849 2.41913C4.2315 2.62235 3.78706 2.89859 3.34261 3.34312C2.89817 3.78766 2.62515 4.23536 2.4188 4.75928C2.22198 5.26732 2.08547 5.84838 2.04737 6.70252C2.00928 7.55348 1.99976 7.82655 1.99976 9.99841C1.99976 12.1703 2.00928 12.4433 2.04737 13.2975C2.08547 14.1484 2.22198 14.7295 2.4188 15.2407C2.62198 15.7678 2.89817 16.2123 3.34261 16.6569C3.78706 17.1014 4.23468 17.3745 4.75849 17.5809C5.26642 17.7777 5.84738 17.9143 6.70134 17.9524C7.55531 17.9905 7.82515 18 9.99976 18C12.1744 18 12.4442 17.9905 13.2982 17.9524C14.149 17.9143 14.7299 17.7777 15.241 17.5809C15.768 17.3777 16.2125 17.1014 16.6569 16.6569C17.1013 16.2123 17.3744 15.7646 17.5807 15.2407C17.7775 14.7327 17.914 14.1516 17.9521 13.2975C17.9902 12.4433 17.9998 12.1734 17.9998 9.99841C17.9998 7.82338 17.9902 7.55348 17.9521 6.69935C17.914 5.84838 17.7775 5.26732 17.5807 4.7561C17.3775 4.22901 17.1013 3.78448 16.6569 3.33995C16.2125 2.89542 15.7648 2.62235 15.241 2.41596C14.7331 2.21909 14.1521 2.08256 13.2982 2.04445C12.441 2.00953 12.168 2 9.99658 2Z" fill="#333333"/>
<path d="M9.99661 5.89282C7.72994 5.89282 5.88867 7.73128 5.88867 10.0016C5.88867 12.2719 7.72677 14.1103 9.99661 14.1103C12.2664 14.1103 14.1045 12.2719 14.1045 10.0016C14.1045 7.73128 12.2664 5.89282 9.99661 5.89282ZM9.99661 12.6656C8.52359 12.6656 7.32994 11.4717 7.32994 9.9984C7.32994 8.52509 8.52359 7.3312 9.99661 7.3312C11.4696 7.3312 12.6633 8.52509 12.6633 9.9984C12.6633 11.4717 11.4696 12.6656 9.99661 12.6656Z" fill="#333333"/>
<path d="M14.2663 6.68664C14.7958 6.68664 15.2251 6.25732 15.2251 5.72772C15.2251 5.19812 14.7958 4.7688 14.2663 4.7688C13.7369 4.7688 13.3076 5.19812 13.3076 5.72772C13.3076 6.25732 13.7369 6.68664 14.2663 6.68664Z" fill="#333333"/>
</svg>
