<svg width="20" height="20" viewBox="0 0 20 20" fill="none" xmlns="http://www.w3.org/2000/svg">
<path d="M9.11555 1.67634C9.49076 0.965194 10.5092 0.965192 10.8844 1.67634L12.827 5.35822C12.9717 5.63247 13.2355 5.82408 13.541 5.87694L17.643 6.58669C18.4352 6.72377 18.75 7.69241 18.1896 8.26901L15.2882 11.2543C15.0721 11.4766 14.9713 11.7867 15.0155 12.0936L15.6081 16.2141C15.7225 17.01 14.8985 17.6086 14.177 17.2538L10.4412 15.417C10.163 15.2801 9.83701 15.2801 9.55875 15.417L5.82301 17.2538C5.10146 17.6086 4.27749 17.01 4.39194 16.2141L4.98451 12.0936C5.02865 11.7867 4.92792 11.4766 4.71181 11.2543L1.81042 8.26901C1.25002 7.69241 1.56475 6.72377 2.35704 6.58669L6.45901 5.87694C6.76455 5.82408 7.02827 5.63247 7.17297 5.35822L9.11555 1.67634Z" fill="#333333"/>
</svg>
