<svg width="20" height="20" viewBox="0 0 20 20" fill="none" xmlns="http://www.w3.org/2000/svg">
<rect width="20" height="20" fill="white"/>
<path d="M2 14.7958H4.18833L5.73475 9.17904C6.0557 8.0557 6.36207 6.81565 6.65385 5.64854H6.7122C7.01857 6.80106 7.32493 8.0557 7.64589 9.17904L9.19231 14.7958H11.4536L7.99602 4H5.45756L2 14.7958ZM4.14456 12.0239H9.27984V10.3607H4.14456V12.0239Z" fill="#9999FF"/>
<path d="M15.1683 15C16.1749 15 17.1961 14.6645 17.9985 14.1101L17.2837 12.7825C16.6855 13.1472 16.102 13.3515 15.4455 13.3515C14.2346 13.3515 13.3593 12.6658 13.1696 11.3236H18.2173C18.2611 11.1194 18.3049 10.7401 18.3049 10.3316C18.3049 8.07029 17.1524 6.43634 14.8911 6.43634C12.9654 6.43634 11.098 8.07029 11.098 10.7255C11.098 13.4244 12.8778 15 15.1683 15ZM13.1404 9.8939C13.3155 8.69761 14.0741 8.08488 14.9348 8.08488C15.9852 8.08488 16.4813 8.78515 16.4813 9.8939H13.1404Z" fill="#9999FF"/>
</svg>
