<svg width="20" height="20" viewBox="0 0 20 20" fill="none" xmlns="http://www.w3.org/2000/svg">
<path d="M15.5553 2H4.4442C3.09664 2 1.99976 3.09689 1.99976 4.44444V15.5556C1.99976 16.9031 3.09664 18 4.4442 18H15.5553C16.9029 18 17.9998 16.9031 17.9998 15.5556V4.44444C17.9998 3.09689 16.9029 2 15.5553 2ZM10.6664 14.8889C8.18064 14.8889 6.4442 13.1529 6.4442 10.6667V6C6.4442 5.50933 6.84242 5.11111 7.33309 5.11111C7.82376 5.11111 8.22198 5.50933 8.22198 6V10.6667C8.22198 12.1747 9.15842 13.1111 10.6664 13.1111C11.7691 13.1111 12.6664 12.2138 12.6664 11.1111C12.6664 10.0084 11.7691 9.11111 10.6664 9.11111H9.99976C9.50909 9.11111 9.11087 8.71289 9.11087 8.22222C9.11087 7.73156 9.50909 7.33333 9.99976 7.33333H10.6664C12.7495 7.33333 14.4442 9.028 14.4442 11.1111C14.4442 13.1942 12.7495 14.8889 10.6664 14.8889Z" fill="#333333"/>
</svg>
