<svg width="20" height="20" viewBox="0 0 20 20" fill="none" xmlns="http://www.w3.org/2000/svg">
<path d="M9.43439 11.0234C9.74597 11.2405 10.1333 11.242 10.4449 11.0263L18 5.8152V5.2C18 4.53703 17.4793 4 16.8365 4H3.16351C2.5207 4 2 4.53703 2 5.2V5.82244L9.43439 11.0234Z" fill="#333333"/>
<path d="M18.0001 7.35107L12.6892 11.0148L17.9355 15.1909C17.9762 15.0678 18.0001 14.9376 18.0001 14.8V7.35107V7.35107Z" fill="#333333"/>
<path d="M11.5552 11.7964L11.1328 12.0873C10.7706 12.3377 10.3566 12.4622 9.94258 12.4622C9.52854 12.4622 9.10468 12.3348 8.73977 12.0786L8.34258 11.8007L3.14258 15.9985C3.14258 15.9985 3.15661 15.9985 3.16363 15.9985H16.8352L11.5552 11.7949V11.7964Z" fill="#333333"/>
<path d="M2 7.36401V14.7985C2 14.9317 2.02105 15.0591 2.06035 15.1778L7.21825 11.0147L2 7.36401Z" fill="#333333"/>
</svg>
