<svg width="20" height="20" viewBox="0 0 20 20" fill="none" xmlns="http://www.w3.org/2000/svg">
<path d="M9.66455 9.62016C9.66455 8.14742 10.8734 6.95349 12.3646 6.95349C13.8557 6.95349 15.0646 8.14742 15.0646 9.62016C15.0646 11.0929 13.8557 12.2868 12.3646 12.2868C10.8734 12.2868 9.66455 11.0929 9.66455 9.62016Z" fill="#1ABCFE"/>
<path d="M4.26465 14.9537C4.26465 13.4809 5.47348 12.287 6.96465 12.287H9.66465V14.9537C9.66465 16.4264 8.45583 17.6203 6.96465 17.6203C5.47348 17.6203 4.26465 16.4264 4.26465 14.9537Z" fill="#0ACF83"/>
<path d="M9.66455 1.62024V6.95356H12.3646C13.8557 6.95356 15.0646 5.75966 15.0646 4.2869C15.0646 2.81415 13.8557 1.62024 12.3646 1.62024H9.66455Z" fill="#FF7262"/>
<path d="M4.26465 4.28691C4.26465 5.75966 5.47348 6.95356 6.96465 6.95356H9.66465V1.62024H6.96465C5.47348 1.62024 4.26465 2.81415 4.26465 4.28691Z" fill="#F24E1E"/>
<path d="M4.26465 9.62016C4.26465 11.0929 5.47348 12.2868 6.96465 12.2868H9.66465V6.95349H6.96465C5.47348 6.95349 4.26465 8.14742 4.26465 9.62016Z" fill="#A259FF"/>
</svg>
