<svg width="20" height="20" viewBox="0 0 20 20" fill="none" xmlns="http://www.w3.org/2000/svg">
<path d="M14.6477 15H16.6818V6.81493H14.6477V15Z" fill="#FF9A00"/>
<path d="M4 15H6.22973L7.80541 9.27702C8.13243 8.13243 8.4446 6.86892 8.74189 5.67973H8.80135C9.11351 6.85406 9.42568 8.13243 9.7527 9.27702L11.3284 15H13.6324L10.1095 4H7.52297L4 15ZM6.18514 12.1757H11.4176V10.4811H6.18514V12.1757Z" fill="#FF9A00"/>
<path d="M16.7855 5.12081C16.7855 5.73982 16.2837 6.24162 15.6647 6.24162C15.0457 6.24162 14.5439 5.73982 14.5439 5.12081C14.5439 4.5018 15.0457 4 15.6647 4C16.2837 4 16.7855 4.5018 16.7855 5.12081Z" fill="#FF9A00"/>
</svg>
