<svg width="20" height="20" viewBox="0 0 20 20" fill="none" xmlns="http://www.w3.org/2000/svg">
<rect x="6.14844" y="8.91675" width="7.70391" height="1.16667" rx="0.583333" fill="#333333"/>
<path d="M14.4443 7.16667C14.4443 7.16667 16.8148 7.16667 16.8148 9.5C16.8148 11.8333 14.4443 11.8333 14.4443 11.8333H11.4813C11.2837 11.8333 10.8887 11.95 10.8887 12.4167C10.8887 12.8833 11.2837 13 11.4813 13H14.7406C15.6295 13 18 12.2461 18 9.5C18 6.75385 15.6295 6 14.4443 6H11.4813C11.2837 6 10.8887 6.11667 10.8887 6.58333C10.8887 7.05 11.2837 7.16667 11.4813 7.16667H14.4443Z" fill="#333333"/>
<path d="M5.55568 11.8335C5.55568 11.8335 3.18524 11.8335 3.18524 9.50012C3.18524 7.16679 5.55568 7.16679 5.55568 7.16679H8.51872C8.71626 7.16679 9.11133 7.05012 9.11133 6.58346C9.11133 6.11679 8.71626 6.00012 8.51872 6.00012H5.25937C4.37046 6.00012 2.00002 6.75398 2.00002 9.50012C2.00002 12.2463 4.37046 13.0001 5.55568 13.0001H8.51872C8.71626 13.0001 9.11133 12.8835 9.11133 12.4168C9.11133 11.9501 8.71626 11.8335 8.51872 11.8335H5.55568Z" fill="#333333"/>
</svg>
