<svg width="20" height="20" viewBox="0 0 20 20" fill="none" xmlns="http://www.w3.org/2000/svg">
<path fill-rule="evenodd" clip-rule="evenodd" d="M7.56593 14.3081C8.84684 15.4935 10.08 16.6347 10.5 18C10.9193 16.6367 12.1517 15.496 13.4322 14.3108C15.1717 12.7008 17 11.0086 17 8.56437C17 4.93897 14.0899 2 10.5 2C6.91015 2 4 4.93897 4 8.56437C4 11.008 5.82698 12.6988 7.56593 14.3081ZM10.5001 11.1345C12.0854 11.1345 13.3705 9.83664 13.3705 8.23565C13.3705 6.63467 12.0854 5.33682 10.5001 5.33682C8.91481 5.33682 7.62969 6.63467 7.62969 8.23565C7.62969 9.83664 8.91481 11.1345 10.5001 11.1345Z" fill="#333333"/>
</svg>
