<svg width="20" height="20" viewBox="0 0 20 20" fill="none" xmlns="http://www.w3.org/2000/svg">
<path d="M3 14.7958H5.15915V10.9589H6.60345C8.92308 10.9589 10.7613 9.86472 10.7613 7.3992C10.7613 4.83156 8.92308 4 6.54509 4H3V14.7958ZM5.15915 9.25199V5.72149H6.38462C7.87268 5.72149 8.66048 6.12997 8.66048 7.3992C8.66048 8.62467 7.94562 9.25199 6.45756 9.25199H5.15915Z" fill="#31A8FF"/>
<path d="M13.6993 15C15.8147 15 16.9381 13.8621 16.9381 12.4178C16.9381 10.9151 15.7564 10.3607 14.6768 9.95225C13.8015 9.64589 13.0574 9.41247 13.0574 8.82891C13.0574 8.34748 13.393 8.02652 14.137 8.02652C14.7351 8.02652 15.3187 8.3183 15.8877 8.72679L16.8651 7.44297C16.194 6.91777 15.2603 6.43634 14.0786 6.43634C12.2113 6.43634 11.0442 7.47215 11.0442 8.91645C11.0442 10.3024 12.1967 10.9151 13.2325 11.3236C14.0786 11.6446 14.9394 11.9363 14.9394 12.5345C14.9394 13.0451 14.5601 13.4098 13.7431 13.4098C12.9845 13.4098 12.2988 13.0743 11.5548 12.5053L10.5919 13.8621C11.3943 14.5332 12.6052 15 13.6993 15Z" fill="#31A8FF"/>
</svg>
