<svg width="20" height="20" viewBox="0 0 20 20" fill="none" xmlns="http://www.w3.org/2000/svg">
<rect width="20" height="20" fill="white"/>
<path d="M16.3736 6.24557C16.3883 6.39236 16.3883 6.52447 16.3883 6.67126C16.3883 11.0162 13.0769 16.0364 7.04029 16.0364C5.25275 16.0364 3.50916 15.5226 2 14.5538C2.26374 14.5832 2.52747 14.5979 2.77656 14.5979C4.25641 14.5979 5.69231 14.0988 6.86447 13.1887C5.45788 13.1593 4.22711 12.2492 3.78755 10.8988C4.28571 10.9869 4.78388 10.9722 5.2674 10.8401C3.72894 10.5318 2.63004 9.18135 2.63004 7.61071C2.63004 7.59603 2.63004 7.58135 2.63004 7.56667C3.0989 7.83089 3.61172 7.97768 4.13919 7.99236C2.68864 7.02355 2.24908 5.10061 3.11355 3.60337C4.78388 5.65841 7.24542 6.90612 9.88278 7.03823C9.61905 5.89328 9.98535 4.68961 10.8352 3.89695C12.1538 2.64924 14.2344 2.70795 15.4799 4.04373C16.2125 3.89695 16.9158 3.63272 17.5604 3.25107C17.3114 4.01438 16.7985 4.66025 16.1099 5.07126C16.7546 4.99786 17.3993 4.82172 18 4.5575C17.5751 5.20337 17.0183 5.77584 16.3736 6.24557Z" fill="#333333"/>
</svg>
