<svg width="20" height="20" viewBox="0 0 20 20" fill="none" xmlns="http://www.w3.org/2000/svg">
<path d="M3 14.8101H5.12947L6.20099 12.5857C6.43157 12.0703 6.67571 11.5549 6.91985 10.9309H6.97411C7.2725 11.5549 7.51665 12.0703 7.77435 12.5857L8.90012 14.8101H11.1245L8.28977 9.73736L10.9346 4.77312H8.81874L7.8693 6.84834C7.65228 7.32306 7.44883 7.81134 7.20469 8.43527H7.15043C6.85203 7.81134 6.63502 7.32306 6.39088 6.84834L5.38718 4.77312H3.16276L5.82121 9.64242L3 14.8101Z" fill="#FF61F6"/>
<path d="M13.8843 15C14.671 15 15.4305 14.5795 15.9866 14.0234H16.0273L16.1765 14.8101H17.8041V4H15.8103V6.65845L15.8917 7.85204C15.3356 7.35019 14.8066 7.03822 13.9521 7.03822C12.3245 7.03822 10.7647 8.54377 10.7647 11.0259C10.7647 13.5216 11.9854 15 13.8843 15ZM14.3861 13.3588C13.396 13.3588 12.8128 12.5857 12.8128 10.9988C12.8128 9.47966 13.5452 8.66584 14.3997 8.66584C14.8744 8.66584 15.3627 8.82861 15.8103 9.24908V12.5857C15.3763 13.1418 14.9287 13.3588 14.3861 13.3588Z" fill="#FF61F6"/>
</svg>
