<svg width="207" height="40" viewBox="0 0 207 40" fill="none" xmlns="http://www.w3.org/2000/svg">
<g clip-path="url(#clip0_707_412)">
<g clip-path="url(#clip1_707_412)">
<path d="M5.51572 5.22745C5.42139 2.50784 7.53203 0 10.385 0H39.6187C42.4716 0 44.5822 2.50784 44.4879 5.22745C44.3973 7.8399 44.5149 11.224 45.3633 13.9833C46.2144 16.7512 47.6495 18.5007 50 18.7255V21.2745C47.6495 21.4993 46.2144 23.2488 45.3633 26.0167C44.5149 28.776 44.3973 32.1601 44.4879 34.7726C44.5822 37.4922 42.4716 40 39.6187 40H10.385C7.53203 40 5.42139 37.4922 5.51582 34.7726C5.60635 32.1601 5.48867 28.776 4.64023 26.0167C3.78926 23.2488 2.35059 21.4993 0 21.2745V18.7255C2.35049 18.5007 3.78926 16.7512 4.64023 13.9833C5.48867 11.224 5.60635 7.8399 5.51572 5.22745Z" fill="url(#paint0_linear_707_412)"/>
<g filter="url(#filter0_d_707_412)">
<path d="M26.0842 30.633C30.703 30.633 33.4863 28.3626 33.4863 24.6178C33.4863 21.7871 31.5004 19.7378 28.5516 19.4134V19.2955C30.7181 18.9417 32.4182 16.9219 32.4182 14.6662C32.4182 11.4521 29.8906 9.35852 26.0391 9.35852H17.373V30.633H26.0842ZM20.7432 12.0566H25.2267C27.664 12.0566 29.048 13.1475 29.048 15.1231C29.048 17.2315 27.4383 18.4109 24.5195 18.4109H20.7432V12.0566ZM20.7432 27.9351V20.9321H25.1965C28.386 20.9321 30.041 22.1115 30.041 24.4115C30.041 26.7114 28.4313 27.9351 25.3921 27.9351H20.7432Z" fill="url(#paint1_linear_707_412)"/>
<path d="M26.0842 30.633C30.703 30.633 33.4863 28.3626 33.4863 24.6178C33.4863 21.7871 31.5004 19.7378 28.5516 19.4134V19.2955C30.7181 18.9417 32.4182 16.9219 32.4182 14.6662C32.4182 11.4521 29.8906 9.35852 26.0391 9.35852H17.373V30.633H26.0842ZM20.7432 12.0566H25.2267C27.664 12.0566 29.048 13.1475 29.048 15.1231C29.048 17.2315 27.4383 18.4109 24.5195 18.4109H20.7432V12.0566ZM20.7432 27.9351V20.9321H25.1965C28.386 20.9321 30.041 22.1115 30.041 24.4115C30.041 26.7114 28.4313 27.9351 25.3921 27.9351H20.7432Z" stroke="white"/>
</g>
</g>
<path d="M59.8444 31.4545H68.0284C73.0504 31.4545 76.8944 29.3155 76.8944 24.6965C76.8944 21.6275 75.0654 19.8605 72.6164 19.2715V19.1475C74.5694 18.4345 75.7164 16.2955 75.7164 14.1875C75.7164 9.90953 72.1204 8.51453 67.4084 8.51453H59.8444V31.4545ZM64.4324 17.8455V12.0485H67.1604C69.9194 12.0485 71.2524 12.8235 71.2524 14.8385C71.2524 16.6985 70.0124 17.8455 67.0984 17.8455H64.4324ZM64.4324 27.9205V21.2555H67.6254C70.7874 21.2555 72.4304 22.2165 72.4304 24.4485C72.4304 26.8045 70.7254 27.9205 67.6254 27.9205H64.4324ZM87.827 31.8885C92.167 31.8885 96.135 28.5405 96.135 22.8055C96.135 17.0395 92.167 13.6915 87.827 13.6915C83.456 13.6915 79.488 17.0395 79.488 22.8055C79.488 28.5405 83.456 31.8885 87.827 31.8885ZM87.827 28.1995C85.44 28.1995 84.138 26.0605 84.138 22.8055C84.138 19.5195 85.44 17.4115 87.827 17.4115C90.183 17.4115 91.485 19.5195 91.485 22.8055C91.485 26.0605 90.183 28.1995 87.827 28.1995ZM107.232 31.8885C111.572 31.8885 115.54 28.5405 115.54 22.8055C115.54 17.0395 111.572 13.6915 107.232 13.6915C102.861 13.6915 98.8933 17.0395 98.8933 22.8055C98.8933 28.5405 102.861 31.8885 107.232 31.8885ZM107.232 28.1995C104.845 28.1995 103.543 26.0605 103.543 22.8055C103.543 19.5195 104.845 17.4115 107.232 17.4115C109.588 17.4115 110.89 19.5195 110.89 22.8055C110.89 26.0605 109.588 28.1995 107.232 28.1995ZM124.709 31.8885C126.259 31.8885 127.468 31.5475 128.398 31.2375L127.654 27.9205C127.158 28.1065 126.507 28.3235 125.918 28.3235C124.399 28.3235 123.562 27.3935 123.562 25.4095V17.6905H127.871V14.1255H123.562V9.41353H119.78L119.284 14.1255L116.587 14.3115V17.6905H119.005V25.4095C119.005 29.2845 120.586 31.8885 124.709 31.8885ZM135.878 31.8885C140.373 31.8885 142.76 29.4705 142.76 26.4015C142.76 23.2085 140.249 22.0305 137.955 21.1625C136.095 20.5115 134.514 20.0155 134.514 18.7755C134.514 17.7525 135.227 17.0705 136.808 17.0705C138.079 17.0705 139.319 17.6905 140.528 18.5585L142.605 15.8305C141.179 14.7145 139.195 13.6915 136.684 13.6915C132.716 13.6915 130.236 15.8925 130.236 18.9615C130.236 21.9065 132.685 23.2085 134.886 24.0765C136.684 24.7585 138.513 25.3785 138.513 26.6495C138.513 27.7345 137.707 28.5095 135.971 28.5095C134.359 28.5095 132.902 27.7965 131.321 26.5875L129.275 29.4705C130.98 30.8965 133.553 31.8885 135.878 31.8885ZM151.712 31.8885C153.262 31.8885 154.471 31.5475 155.401 31.2375L154.657 27.9205C154.161 28.1065 153.51 28.3235 152.921 28.3235C151.402 28.3235 150.565 27.3935 150.565 25.4095V17.6905H154.874V14.1255H150.565V9.41353H146.783L146.287 14.1255L143.59 14.3115V17.6905H146.008V25.4095C146.008 29.2845 147.589 31.8885 151.712 31.8885ZM158.436 31.4545H162.993V21.1315C163.954 18.6205 165.597 17.6905 166.93 17.6905C167.674 17.6905 168.139 17.8145 168.759 17.9695L169.534 14.0635C169.007 13.8155 168.449 13.6915 167.519 13.6915C165.721 13.6915 163.83 14.9005 162.59 17.1945H162.497L162.125 14.1255H158.436V31.4545ZM175.095 31.8885C177.079 31.8885 178.815 30.9275 180.334 29.6255H180.458L180.799 31.4545H184.519V21.3485C184.519 16.2955 182.256 13.6915 177.854 13.6915C175.095 13.6915 172.646 14.7145 170.6 15.9545L172.243 18.9925C173.824 18.0315 175.405 17.3495 177.017 17.3495C179.156 17.3495 179.869 18.6205 179.962 20.3255C172.987 21.1005 169.98 23.0535 169.98 26.7425C169.98 29.7185 171.995 31.8885 175.095 31.8885ZM176.583 28.3235C175.25 28.3235 174.32 27.7345 174.32 26.4015C174.32 24.8205 175.715 23.6735 179.962 23.1465V26.6495C178.846 27.7345 177.885 28.3235 176.583 28.3235ZM189.164 38.1195H193.721V32.8495L193.566 30.0285C194.868 31.2375 196.356 31.8885 197.844 31.8885C201.657 31.8885 205.222 28.4785 205.222 22.5265C205.222 17.1635 202.68 13.6915 198.402 13.6915C196.542 13.6915 194.744 14.6525 193.318 15.9235H193.225L192.853 14.1255H189.164V38.1195ZM196.852 28.1375C195.922 28.1375 194.806 27.8275 193.721 26.8665V19.2095C194.899 18.0005 195.953 17.4115 197.1 17.4115C199.518 17.4115 200.541 19.2405 200.541 22.5885C200.541 26.3395 198.929 28.1375 196.852 28.1375Z" fill="#7952B3"/>
</g>
<defs>
<filter id="filter0_d_707_412" x="0.873047" y="-3.14148" width="49.1133" height="54.2745" filterUnits="userSpaceOnUse" color-interpolation-filters="sRGB">
<feFlood flood-opacity="0" result="BackgroundImageFix"/>
<feColorMatrix in="SourceAlpha" type="matrix" values="0 0 0 0 0 0 0 0 0 0 0 0 0 0 0 0 0 0 127 0" result="hardAlpha"/>
<feOffset dy="4"/>
<feGaussianBlur stdDeviation="8"/>
<feColorMatrix type="matrix" values="0 0 0 0 0 0 0 0 0 0 0 0 0 0 0 0 0 0 0.15 0"/>
<feBlend mode="normal" in2="BackgroundImageFix" result="effect1_dropShadow_707_412"/>
<feBlend mode="normal" in="SourceGraphic" in2="effect1_dropShadow_707_412" result="shape"/>
</filter>
<linearGradient id="paint0_linear_707_412" x1="7.42959" y1="1.05863" x2="51.2532" y2="35.7099" gradientUnits="userSpaceOnUse">
<stop stop-color="#9013FE"/>
<stop offset="1" stop-color="#6610F2"/>
</linearGradient>
<linearGradient id="paint1_linear_707_412" x1="18.8972" y1="10.7588" x2="28.7201" y2="27.3067" gradientUnits="userSpaceOnUse">
<stop stop-color="white"/>
<stop offset="1" stop-color="#F1E5FC"/>
</linearGradient>
<clipPath id="clip0_707_412">
<rect width="206.364" height="40" fill="white"/>
</clipPath>
<clipPath id="clip1_707_412">
<rect width="50" height="40" fill="white"/>
</clipPath>
</defs>
</svg>
