<svg width="197" height="40" viewBox="0 0 197 40" fill="none" xmlns="http://www.w3.org/2000/svg">
<path fill-rule="evenodd" clip-rule="evenodd" d="M2.95636 0C2.17229 0 1.42032 0.311473 0.865899 0.865899C0.311473 1.42032 0 2.17229 0 2.95636L0 37.0436C0 37.8277 0.311473 38.5797 0.865899 39.1341C1.42032 39.6885 2.17229 40 2.95636 40H36.49C37.2741 40 38.026 39.6885 38.5805 39.1341C39.1349 38.5797 39.4464 37.8277 39.4464 37.0436V2.95636C39.4464 2.17229 39.1349 1.42032 38.5805 0.865899C38.026 0.311473 37.2741 0 36.49 0L2.95636 0ZM31.7273 10.15C31.8873 9.05182 31.14 8.03182 30.0573 7.86909C25.9709 7.25636 22.0991 10.9382 17.9691 18.9127C14.7264 25.1745 11.81 28.3218 9.82364 28.1727C8.73273 28.0909 7.78273 28.9218 7.70182 30.0273C7.62182 31.1336 8.44091 32.0973 9.53182 32.1791C13.5527 32.48 17.3727 28.7045 21.4773 20.78C24.6909 14.5736 27.5618 11.5555 29.4782 11.8436C30.56 12.0045 31.5673 11.2473 31.7273 10.1491V10.15Z" fill="url(#paint0_linear_707_416)"/>
<path fill-rule="evenodd" clip-rule="evenodd" d="M48.81 31.5453V8.45443H53.3964V27.479H63.4664V31.5435H48.8091L48.81 31.5453ZM73.6645 31.8372C68.6618 31.8372 65.3264 28.3581 65.3264 23.6099C65.3264 18.8617 68.6618 15.4144 73.6645 15.4144C78.5391 15.4144 81.9709 18.7326 81.9709 23.6099C81.9709 28.4553 78.5391 31.8372 73.6645 31.8372ZM73.6645 28.0008C75.91 28.0008 77.7054 26.2117 77.7054 23.6099C77.7054 21.0081 75.9736 19.219 73.6645 19.219C71.2273 19.219 69.5918 21.1063 69.5918 23.6099C69.5918 26.0817 71.2591 28.0008 73.6645 28.0008ZM89.3145 31.8372C86.6209 31.8372 84.8573 30.1135 84.8573 26.5372V19.1872H82.9964V15.6417H84.8573V10.4726L89.0573 10.0181V15.6435H93.2909V19.1881H89.0582V25.9199C89.0582 27.3181 89.4109 27.969 90.4045 27.969C90.9182 27.969 91.6882 27.7735 92.3936 27.4153L93.4518 30.8299C92.4573 31.3835 91.4309 31.839 89.3155 31.839L89.3145 31.8372ZM101.148 31.8372C98.4545 31.8372 96.6909 30.1135 96.6909 26.5372V19.1872H94.8309V15.6417H96.6909V10.4726L100.892 10.0181V15.6435H105.125V19.1881H100.892V25.9199C100.892 27.3181 101.245 27.969 102.239 27.969C102.752 27.969 103.522 27.7735 104.227 27.4153L105.285 30.8299C104.291 31.3835 103.265 31.839 101.148 31.839V31.8372ZM110.481 13.4963C108.941 13.4963 107.819 12.3253 107.819 10.8617C107.819 9.4308 108.941 8.25989 110.481 8.25989C111.988 8.25989 113.143 9.4308 113.143 10.8617C113.143 12.3253 111.988 13.4963 110.481 13.4963ZM108.332 31.5444V15.6426H112.533V31.5444H108.332ZM130.525 23.4472C130.525 23.9672 130.46 24.7153 130.428 24.9753H119.428C119.941 26.8944 121.448 28.0326 123.565 28.0326C125.329 28.0326 126.547 27.2844 127.382 26.2444L130.107 28.8135C128.793 30.5363 126.772 31.8372 123.276 31.8372C118.466 31.8372 115.066 28.5526 115.066 23.5772C115.066 18.7317 118.37 15.4144 123.02 15.4144C127.445 15.4144 130.525 18.7963 130.525 23.4472ZM122.988 19.1217C121.288 19.1217 119.941 20.0981 119.46 21.919H126.355C125.938 20.2281 124.815 19.1217 122.988 19.1217Z" fill="#18C8CA"/>
<path fill-rule="evenodd" clip-rule="evenodd" d="M159.773 31.5456V7.60925H163.974V31.5456H159.773ZM154.288 13.4965C152.749 13.4965 151.626 12.3256 151.626 10.862C151.626 9.43107 152.749 8.26107 154.288 8.26107C155.795 8.26107 156.95 9.43107 156.95 10.862C156.95 12.3256 155.795 13.4965 154.288 13.4965ZM133.539 31.5456V8.45471H148.644V12.5202H137.997V18.6993H146.88V22.7965H137.997V31.5456H133.539ZM152.14 15.6429V31.5447H156.341V15.6429H152.14ZM181.868 24.9765C181.925 24.4687 181.957 23.9584 181.965 23.4474C181.965 18.7974 178.886 15.4147 174.46 15.4147C169.81 15.4147 166.507 18.7329 166.507 23.5783C166.507 28.5538 169.906 31.8383 174.717 31.8383C178.213 31.8383 180.233 30.5374 181.547 28.8138L178.822 26.2447C177.988 27.2847 176.769 28.0329 175.005 28.0329C172.889 28.0329 171.382 26.8947 170.868 24.9765H181.868ZM174.428 19.122C172.728 19.122 171.382 20.0983 170.901 21.9193H177.795C177.378 20.2283 176.256 19.122 174.428 19.122ZM183.953 29.4965C185.653 30.992 187.801 31.8383 190.303 31.8383C194.407 31.8383 196.364 29.692 196.364 26.8947C196.364 23.7402 194.375 22.992 190.976 21.7238C189.437 21.1383 188.667 20.6829 188.667 20.0329C188.667 19.1874 189.501 18.862 190.143 18.862C191.297 18.862 192.708 19.3829 193.895 20.5529L195.947 17.3983C194.151 16.0002 192.387 15.4147 190.239 15.4147C187 15.4147 184.562 17.2693 184.562 20.1302C184.562 23.2202 186.807 24.4556 189.405 25.3338C191.425 26.0165 192.227 26.3747 192.227 27.0574C192.227 27.8374 191.554 28.3574 190.335 28.3574C188.603 28.3574 187.256 27.7402 185.974 26.5374L183.953 29.4965Z" fill="#006B78"/>
<defs>
<linearGradient id="paint0_linear_707_416" x1="-12.2591" y1="23.2482" x2="25.7745" y2="47.6264" gradientUnits="userSpaceOnUse">
<stop stop-color="#2BEAED"/>
<stop offset="1" stop-color="#0FCCCE"/>
</linearGradient>
</defs>
</svg>
