<svg width="401" height="400" viewBox="0 0 401 400" fill="none" xmlns="http://www.w3.org/2000/svg">
<g clip-path="url(#clip0_806_484)">
<mask id="mask0_806_484" style="mask-type:alpha" maskUnits="userSpaceOnUse" x="0" y="0" width="400" height="401">
<path d="M199.688 400.013C309.88 400.013 399.209 310.467 399.209 200.006C399.209 89.546 309.88 0 199.688 0C89.4952 0 0.166504 89.546 0.166504 200.006C0.166504 310.467 89.4952 400.013 199.688 400.013Z" fill="#70D3C2"/>
</mask>
<g mask="url(#mask0_806_484)">
<path d="M199.688 400.013C309.88 400.013 399.209 310.467 399.209 200.006C399.209 89.546 309.88 0 199.688 0C89.4952 0 0.166504 89.546 0.166504 200.006C0.166504 310.467 89.4952 400.013 199.688 400.013Z" fill="url(#paint0_linear_806_484)"/>
<path d="M294.862 155.702C294.862 103.004 252.248 60.2834 199.681 60.2834C147.115 60.2834 104.501 103.004 104.501 155.702V278.811C104.501 331.509 147.115 374.229 199.681 374.229C252.248 374.229 294.862 331.509 294.862 278.811V155.702Z" fill="#6E7CB7"/>
<path d="M118.63 213.793C131.013 213.793 141.052 203.73 141.052 191.317C141.052 178.903 131.013 168.84 118.63 168.84C106.246 168.84 96.2075 178.903 96.2075 191.317C96.2075 203.73 106.246 213.793 118.63 213.793Z" fill="#DDDDDD"/>
<path d="M280.746 213.793C293.13 213.793 303.168 203.73 303.168 191.317C303.168 178.903 293.13 168.84 280.746 168.84C268.363 168.84 258.324 178.903 258.324 191.317C258.324 203.73 268.363 213.793 280.746 213.793Z" fill="#DDDDDD"/>
<path d="M179.375 244.493C191.977 249.979 190.58 266.593 182.17 274.18C181.769 274.544 181.367 274.907 180.953 275.283C185.974 279.628 192.507 282.287 199.675 282.287C206.843 282.287 213.377 279.641 218.397 275.283C217.996 274.92 217.582 274.544 217.181 274.18C208.771 266.593 207.373 249.979 219.975 244.493C241.168 235.258 272.337 217.256 277.137 172.303C283.037 117.091 255.711 75.4839 199.662 75.4839C143.614 75.4839 116.275 117.091 122.188 172.303C127.001 217.256 158.156 235.258 179.349 244.493H179.375Z" fill="#EEEEEE"/>
<path d="M284.188 180.941C284.188 233.455 255.491 276.035 255.491 276.035C255.491 276.035 265.052 233.468 265.052 180.941V113.511C265.052 113.511 284.188 128.426 284.188 180.941Z" fill="#98A2D6"/>
<path d="M115.175 187.867C115.175 240.381 143.872 282.961 143.872 282.961C143.872 282.961 134.311 240.394 134.311 187.867V120.437C134.311 120.437 115.175 135.352 115.175 187.867Z" fill="#98A2D6"/>
<path d="M199.688 60.2834C147.12 60.2834 104.501 103.006 104.501 155.702V174.171C157.03 174.132 199.61 75.497 199.61 75.497C199.61 75.497 242.229 174.171 294.797 174.171C294.823 174.171 294.849 174.171 294.875 174.171V155.702C294.875 103.006 252.256 60.2834 199.688 60.2834Z" fill="#98A2D6"/>
<path d="M162.607 196.505C173.083 196.505 181.575 187.992 181.575 177.491C181.575 166.99 173.083 158.477 162.607 158.477C152.132 158.477 143.64 166.99 143.64 177.491C143.64 187.992 152.132 196.505 162.607 196.505Z" fill="white"/>
<path d="M169.438 182.796C174.233 182.796 178.12 178.899 178.12 174.093C178.12 169.286 174.233 165.39 169.438 165.39C164.644 165.39 160.757 169.286 160.757 174.093C160.757 178.899 164.644 182.796 169.438 182.796Z" fill="#6E7CB7"/>
<path d="M138.451 170.578C146.369 159.294 160.058 152.926 173.19 159.346C178.573 161.836 183.192 165.987 186.75 170.578C182.907 167.906 179.116 165.351 175.079 163.432C161.3 156.545 149.772 161.668 138.464 170.578H138.451Z" fill="#6E7CB7"/>
<path d="M236.769 196.505C247.245 196.505 255.737 187.992 255.737 177.491C255.737 166.99 247.245 158.477 236.769 158.477C226.294 158.477 217.802 166.99 217.802 177.491C217.802 187.992 226.294 196.505 236.769 196.505Z" fill="white"/>
<path d="M243.601 182.796C248.395 182.796 252.282 178.899 252.282 174.093C252.282 169.286 248.395 165.39 243.601 165.39C238.806 165.39 234.919 169.286 234.919 174.093C234.919 178.899 238.806 182.796 243.601 182.796Z" fill="#6E7CB7"/>
<path d="M212.613 170.578C220.532 159.294 234.22 152.926 247.353 159.346C252.735 161.836 257.354 165.987 260.912 170.578C257.069 167.919 253.278 165.351 249.242 163.432C235.462 156.545 223.934 161.668 212.626 170.578H212.613Z" fill="#6E7CB7"/>
<path d="M150.535 134.263C158.583 131.124 166.63 131.124 174.678 134.263" stroke="#6E7CB7" stroke-width="2.67" stroke-miterlimit="10" stroke-linecap="round"/>
<path d="M224.697 134.263C232.745 131.124 240.792 131.124 248.84 134.263" stroke="#6E7CB7" stroke-width="2.67" stroke-miterlimit="10" stroke-linecap="round"/>
<path d="M199.688 75.4839L223.831 148.102" stroke="#98A2D6" stroke-width="2.67" stroke-miterlimit="10" stroke-linecap="round"/>
<path d="M199.688 75.4839V151.551" stroke="#98A2D6" stroke-width="2.67" stroke-miterlimit="10" stroke-linecap="round"/>
<path d="M199.688 75.4839L175.532 148.102" stroke="#98A2D6" stroke-width="2.67" stroke-miterlimit="10" stroke-linecap="round"/>
<path d="M204.695 192.264C204.695 195.039 202.457 197.283 199.688 197.283C196.919 197.283 194.681 195.039 194.681 192.264C194.681 189.488 199.688 185.351 199.688 185.351C199.688 185.351 204.695 189.488 204.695 192.264Z" fill="#FFAB7B"/>
<path d="M218.461 210.81C217.491 206.984 210.168 210.408 199.688 210.408C189.208 210.408 181.885 206.997 180.914 210.81C179.931 214.688 189.208 220.369 199.688 220.369C210.168 220.369 219.445 214.675 218.461 210.81Z" fill="#FF7D7D"/>
<path d="M218.409 275.27C213.389 279.628 206.856 282.274 199.688 282.274C192.52 282.274 185.986 279.628 180.966 275.27C151.635 302.078 108.124 357.044 108.356 400H291.019C291.252 354.852 247.741 302.078 218.409 275.27Z" fill="#FDE4A2"/>
</g>
<path d="M378.728 202.639C376.994 201.835 374.95 202.587 374.148 204.312C374.148 204.312 370.007 213.262 369.555 214.234C369.218 214.935 368.196 214.662 368.209 213.767C368.209 212.678 368.442 199.643 368.442 199.643C368.468 197.737 366.954 196.154 365.052 196.129C363.137 196.103 361.585 197.62 361.546 199.527C361.546 199.527 361.326 211.822 361.326 213.054C361.326 214.26 360.252 214.701 359.67 213.378C359.075 212.029 353.498 198.852 353.498 198.852C352.748 197.101 350.729 196.271 348.983 197.023C347.223 197.776 346.408 199.799 347.158 201.563C347.158 201.563 352.864 215.051 353.408 216.283C353.964 217.529 353.136 218.203 352.191 217.308C351.273 216.439 342.824 208.566 342.824 208.566C341.427 207.27 339.253 207.334 337.946 208.748C336.653 210.149 336.73 212.328 338.128 213.638L345.386 220.421C347.094 222.016 348.219 224.234 348.116 226.581V226.659C348.012 229.305 345.761 231.679 343.122 231.912L340.081 232.184C338.192 232.34 336.782 234.026 336.95 235.933C337.118 237.839 338.787 239.24 340.689 239.071L346.46 238.566C347.184 238.501 348.051 238.423 348.957 238.332C352.528 237.995 355.905 240.018 357.302 243.325L360.019 249.745L369.412 245.751L379.064 241.639L376.037 234.493C374.652 231.238 374.199 227.671 374.717 224.169C375.209 220.849 375.946 216.893 376.865 214.922L380.397 207.27C381.199 205.545 380.449 203.482 378.728 202.678V202.639Z" fill="#EEEEEE"/>
<path d="M224.141 311.028C224.141 311.028 313.156 367.692 358.544 342.272C402.12 317.863 369.412 245.712 369.412 245.712" stroke="#FEE4A2" stroke-width="29.33" stroke-linecap="round" stroke-linejoin="round"/>
</g>
<defs>
<linearGradient id="paint0_linear_806_484" x1="199.688" y1="0" x2="199.688" y2="400.013" gradientUnits="userSpaceOnUse">
<stop stop-color="#70D3C2"/>
<stop offset="1" stop-color="#70D3C2" stop-opacity="0"/>
</linearGradient>
<clipPath id="clip0_806_484">
<rect width="400" height="400" fill="white" transform="translate(0.166504)"/>
</clipPath>
</defs>
</svg>
