<svg width="41" height="41" viewBox="0 0 41 41" fill="none" xmlns="http://www.w3.org/2000/svg">
<rect x="1.11768" y="0.879761" width="39" height="39" rx="1.5" stroke="#8051CD"/>
<rect x="3.61768" y="3.37976" width="34" height="34" rx="2" fill="#8051CD"/>
<path d="M6.52168 29.3798H10.1217L12.6657 20.1398C13.1937 18.2918 13.6977 16.2518 14.1777 14.3318H14.2737C14.7777 16.2278 15.2817 18.2918 15.8097 20.1398L18.3537 29.3798H22.0737L16.3857 11.6198H12.2097L6.52168 29.3798ZM10.0497 24.8198H18.4977V22.0838H10.0497V24.8198ZM28.1847 29.7158C29.8407 29.7158 31.5207 29.1638 32.8407 28.2518L31.6647 26.0678C30.6807 26.6678 29.7207 27.0038 28.6407 27.0038C26.6487 27.0038 25.2087 25.8758 24.8967 23.6678H33.2007C33.2727 23.3318 33.3447 22.7078 33.3447 22.0358C33.3447 18.3158 31.4487 15.6278 27.7287 15.6278C24.5607 15.6278 21.4887 18.3158 21.4887 22.6838C21.4887 27.1238 24.4167 29.7158 28.1847 29.7158ZM24.8487 21.3158C25.1367 19.3478 26.3847 18.3398 27.8007 18.3398C29.5287 18.3398 30.3447 19.4918 30.3447 21.3158H24.8487Z" fill="white"/>
</svg>
