<svg width="46" height="73" viewBox="0 0 46 73" fill="none" xmlns="http://www.w3.org/2000/svg">
<g clip-path="url(#clip0_713_1023)">
<path d="M44.91 52.36C44.9948 52.4604 45.059 52.5766 45.0988 52.7018C45.1387 52.8271 45.1535 52.9589 45.1423 53.0899C45.1312 53.2208 45.0943 53.3483 45.0339 53.465C44.9734 53.5817 44.8906 53.6853 44.7901 53.77L23.2201 71.87C23.0396 72.0223 22.8111 72.1058 22.5751 72.1058C22.339 72.1058 22.1105 72.0223 21.9301 71.87L0.360051 53.77C0.258793 53.6861 0.175091 53.583 0.113739 53.4666C0.0523867 53.3503 0.0145903 53.2229 0.00251446 53.092C-0.0095614 52.961 0.00432044 52.8289 0.0433649 52.7033C0.0824094 52.5777 0.145849 52.461 0.230051 52.36C0.314 52.2587 0.417101 52.175 0.533448 52.1137C0.649795 52.0523 0.777103 52.0145 0.90808 52.0025C1.03906 51.9904 1.17113 52.0043 1.29673 52.0433C1.42234 52.0824 1.539 52.1458 1.64005 52.23L21.9301 69.23C22.1105 69.3823 22.339 69.4658 22.5751 69.4658C22.8111 69.4658 23.0396 69.3823 23.2201 69.23L43.5 52.23C43.6011 52.1458 43.7178 52.0824 43.8434 52.0433C43.969 52.0043 44.101 51.9904 44.232 52.0025C44.363 52.0145 44.4903 52.0523 44.6067 52.1137C44.723 52.175 44.8261 52.2587 44.91 52.36ZM22.5701 52C22.2734 52 21.9834 52.088 21.7367 52.2528C21.49 52.4176 21.2978 52.6519 21.1842 52.926C21.0707 53.2001 21.041 53.5017 21.0989 53.7926C21.1568 54.0836 21.2996 54.3509 21.5094 54.5607C21.7192 54.7704 21.9864 54.9133 22.2774 54.9712C22.5684 55.0291 22.87 54.9994 23.1441 54.8858C23.4182 54.7723 23.6524 54.58 23.8173 54.3334C23.9821 54.0867 24.0701 53.7967 24.0701 53.5C24.0701 53.1022 23.912 52.7206 23.6307 52.4393C23.3494 52.158 22.9679 52 22.5701 52ZM22.5701 39C22.2734 39 21.9834 39.088 21.7367 39.2528C21.49 39.4176 21.2978 39.6519 21.1842 39.926C21.0707 40.2001 21.041 40.5017 21.0989 40.7926C21.1568 41.0836 21.2996 41.3509 21.5094 41.5607C21.7192 41.7704 21.9864 41.9133 22.2774 41.9712C22.5684 42.0291 22.87 41.9994 23.1441 41.8858C23.4182 41.7723 23.6524 41.58 23.8173 41.3334C23.9821 41.0867 24.0701 40.7967 24.0701 40.5C24.0701 40.1022 23.912 39.7206 23.6307 39.4393C23.3494 39.158 22.9679 39 22.5701 39ZM22.5701 26C22.2734 26 21.9834 26.088 21.7367 26.2528C21.49 26.4176 21.2978 26.6519 21.1842 26.926C21.0707 27.2001 21.041 27.5017 21.0989 27.7926C21.1568 28.0836 21.2996 28.3509 21.5094 28.5607C21.7192 28.7704 21.9864 28.9133 22.2774 28.9712C22.5684 29.0291 22.87 28.9993 23.1441 28.8858C23.4182 28.7723 23.6524 28.58 23.8173 28.3334C23.9821 28.0867 24.0701 27.7967 24.0701 27.5C24.0701 27.1022 23.912 26.7206 23.6307 26.4393C23.3494 26.158 22.9679 26 22.5701 26ZM22.5701 13C22.2734 13 21.9834 13.088 21.7367 13.2528C21.49 13.4176 21.2978 13.6519 21.1842 13.926C21.0707 14.2001 21.041 14.5017 21.0989 14.7926C21.1568 15.0836 21.2996 15.3509 21.5094 15.5607C21.7192 15.7704 21.9864 15.9133 22.2774 15.9712C22.5684 16.0291 22.87 15.9994 23.1441 15.8858C23.4182 15.7723 23.6524 15.58 23.8173 15.3334C23.9821 15.0867 24.0701 14.7967 24.0701 14.5C24.0701 14.1022 23.912 13.7206 23.6307 13.4393C23.3494 13.158 22.9679 13 22.5701 13ZM22.5701 0C22.2734 0 21.9834 0.0879735 21.7367 0.252796C21.49 0.417618 21.2978 0.651886 21.1842 0.925975C21.0707 1.20006 21.041 1.50166 21.0989 1.79264C21.1568 2.08361 21.2996 2.35088 21.5094 2.56066C21.7192 2.77044 21.9864 2.9133 22.2774 2.97118C22.5684 3.02906 22.87 2.99935 23.1441 2.88582C23.4182 2.77229 23.6524 2.58003 23.8173 2.33336C23.9821 2.08668 24.0701 1.79667 24.0701 1.5C24.0701 1.10218 23.912 0.720644 23.6307 0.43934C23.3494 0.158035 22.9679 0 22.5701 0Z" fill="#CCCCCC"/>
</g>
<defs>
<clipPath id="clip0_713_1023">
<rect width="45.15" height="72.1" fill="white"/>
</clipPath>
</defs>
</svg>
