<svg width="16" height="16" viewBox="0 0 16 16" fill="none" xmlns="http://www.w3.org/2000/svg">
<rect y="14.8573" width="16" height="1.14275" rx="0.571376" fill="#999999"/>
<path d="M1.14282 10.1434C1.14282 9.59115 1.59054 9.14343 2.14282 9.14343H13.8571C14.4094 9.14343 14.8571 9.59115 14.8571 10.1434V14.8572H1.14282V10.1434Z" fill="#999999"/>
<path d="M2.28564 5.57251C2.28564 5.02023 2.73336 4.57251 3.28564 4.57251H12.7142C13.2665 4.57251 13.7142 5.02022 13.7142 5.57251V9.14352H2.28564V5.57251Z" fill="#999999"/>
<rect x="4.83423" y="2.28699" width="0.685714" height="2.2855" fill="#999999"/>
<rect x="7.65698" y="2.28699" width="0.685714" height="2.2855" fill="#999999"/>
<rect x="10.48" y="2.28699" width="0.685715" height="2.2855" fill="#999999"/>
<path d="M5.17714 2.95394e-05C5.2642 0.282981 5.74857 0.456433 5.74857 0.829459C5.74857 1.14815 5.49273 1.40649 5.17714 1.40649C4.86155 1.40649 4.60571 1.14815 4.60571 0.829459C4.60571 0.456433 5.09021 0.282654 5.17714 2.95394e-05Z" fill="#999999"/>
<path d="M7.9999 2.96586e-05C8.08695 0.282981 8.57132 0.456433 8.57132 0.829459C8.57132 1.14815 8.31549 1.40649 7.9999 1.40649C7.6843 1.40649 7.42847 1.14815 7.42847 0.829459C7.42847 0.456433 7.91296 0.282654 7.9999 2.96586e-05Z" fill="#999999"/>
<path d="M10.8229 2.95394e-05C10.9099 0.282981 11.3943 0.456433 11.3943 0.829459C11.3943 1.14815 11.1385 1.40649 10.8229 1.40649C10.5073 1.40649 10.2515 1.14815 10.2515 0.829459C10.2515 0.456433 10.736 0.282654 10.8229 2.95394e-05Z" fill="#999999"/>
</svg>
