<svg width="207" height="40" viewBox="0 0 207 40" fill="none" xmlns="http://www.w3.org/2000/svg">
<g clip-path="url(#clip0_307_165)">
<g clip-path="url(#clip1_307_165)">
<path d="M5.51572 5.22745C5.42139 2.50784 7.53203 0 10.385 0H39.6187C42.4716 0 44.5822 2.50784 44.4879 5.22745C44.3973 7.8399 44.5149 11.224 45.3633 13.9833C46.2144 16.7512 47.6495 18.5007 50 18.7255V21.2745C47.6495 21.4993 46.2144 23.2488 45.3633 26.0167C44.5149 28.776 44.3973 32.1601 44.4879 34.7726C44.5822 37.4922 42.4716 40 39.6187 40H10.385C7.53203 40 5.42139 37.4922 5.51582 34.7726C5.60635 32.1601 5.48867 28.776 4.64023 26.0167C3.78926 23.2488 2.35059 21.4993 0 21.2745V18.7255C2.35049 18.5007 3.78926 16.7512 4.64023 13.9833C5.48867 11.224 5.60635 7.8399 5.51572 5.22745Z" fill="url(#paint0_linear_307_165)"/>
<g filter="url(#filter0_d_307_165)">
<path d="M26.0842 30.633C30.703 30.633 33.4863 28.3626 33.4863 24.6178C33.4863 21.7871 31.5004 19.7378 28.5516 19.4134V19.2955C30.7181 18.9417 32.4182 16.9219 32.4182 14.6662C32.4182 11.4521 29.8906 9.35852 26.0391 9.35852H17.373V30.633H26.0842ZM20.7432 12.0566H25.2267C27.664 12.0566 29.048 13.1475 29.048 15.1231C29.048 17.2315 27.4383 18.4109 24.5195 18.4109H20.7432V12.0566ZM20.7432 27.9351V20.9321H25.1965C28.386 20.9321 30.041 22.1115 30.041 24.4115C30.041 26.7114 28.4313 27.9351 25.3921 27.9351H20.7432Z" fill="url(#paint1_linear_307_165)"/>
<path d="M26.0842 30.633C30.703 30.633 33.4863 28.3626 33.4863 24.6178C33.4863 21.7871 31.5004 19.7378 28.5516 19.4134V19.2955C30.7181 18.9417 32.4182 16.9219 32.4182 14.6662C32.4182 11.4521 29.8906 9.35852 26.0391 9.35852H17.373V30.633H26.0842ZM20.7432 12.0566H25.2267C27.664 12.0566 29.048 13.1475 29.048 15.1231C29.048 17.2315 27.4383 18.4109 24.5195 18.4109H20.7432V12.0566ZM20.7432 27.9351V20.9321H25.1965C28.386 20.9321 30.041 22.1115 30.041 24.4115C30.041 26.7114 28.4313 27.9351 25.3921 27.9351H20.7432Z" stroke="white"/>
</g>
</g>
<path d="M59.8444 31.4546H68.0284C73.0504 31.4546 76.8944 29.3156 76.8944 24.6966C76.8944 21.6276 75.0654 19.8606 72.6164 19.2716V19.1476C74.5694 18.4346 75.7164 16.2956 75.7164 14.1876C75.7164 9.90959 72.1204 8.51459 67.4084 8.51459H59.8444V31.4546ZM64.4324 17.8456V12.0486H67.1604C69.9194 12.0486 71.2524 12.8236 71.2524 14.8386C71.2524 16.6986 70.0124 17.8456 67.0984 17.8456H64.4324ZM64.4324 27.9206V21.2556H67.6254C70.7874 21.2556 72.4304 22.2166 72.4304 24.4486C72.4304 26.8046 70.7254 27.9206 67.6254 27.9206H64.4324ZM87.827 31.8886C92.167 31.8886 96.135 28.5406 96.135 22.8056C96.135 17.0396 92.167 13.6916 87.827 13.6916C83.456 13.6916 79.488 17.0396 79.488 22.8056C79.488 28.5406 83.456 31.8886 87.827 31.8886ZM87.827 28.1996C85.44 28.1996 84.138 26.0606 84.138 22.8056C84.138 19.5196 85.44 17.4116 87.827 17.4116C90.183 17.4116 91.485 19.5196 91.485 22.8056C91.485 26.0606 90.183 28.1996 87.827 28.1996ZM107.232 31.8886C111.572 31.8886 115.54 28.5406 115.54 22.8056C115.54 17.0396 111.572 13.6916 107.232 13.6916C102.861 13.6916 98.8933 17.0396 98.8933 22.8056C98.8933 28.5406 102.861 31.8886 107.232 31.8886ZM107.232 28.1996C104.845 28.1996 103.543 26.0606 103.543 22.8056C103.543 19.5196 104.845 17.4116 107.232 17.4116C109.588 17.4116 110.89 19.5196 110.89 22.8056C110.89 26.0606 109.588 28.1996 107.232 28.1996ZM124.709 31.8886C126.259 31.8886 127.468 31.5476 128.398 31.2376L127.654 27.9206C127.158 28.1066 126.507 28.3236 125.918 28.3236C124.399 28.3236 123.562 27.3936 123.562 25.4096V17.6906H127.871V14.1256H123.562V9.41359H119.78L119.284 14.1256L116.587 14.3116V17.6906H119.005V25.4096C119.005 29.2846 120.586 31.8886 124.709 31.8886ZM135.878 31.8886C140.373 31.8886 142.76 29.4706 142.76 26.4016C142.76 23.2086 140.249 22.0306 137.955 21.1626C136.095 20.5116 134.514 20.0156 134.514 18.7756C134.514 17.7526 135.227 17.0706 136.808 17.0706C138.079 17.0706 139.319 17.6906 140.528 18.5586L142.605 15.8306C141.179 14.7146 139.195 13.6916 136.684 13.6916C132.716 13.6916 130.236 15.8926 130.236 18.9616C130.236 21.9066 132.685 23.2086 134.886 24.0766C136.684 24.7586 138.513 25.3786 138.513 26.6496C138.513 27.7346 137.707 28.5096 135.971 28.5096C134.359 28.5096 132.902 27.7966 131.321 26.5876L129.275 29.4706C130.98 30.8966 133.553 31.8886 135.878 31.8886ZM151.712 31.8886C153.262 31.8886 154.471 31.5476 155.401 31.2376L154.657 27.9206C154.161 28.1066 153.51 28.3236 152.921 28.3236C151.402 28.3236 150.565 27.3936 150.565 25.4096V17.6906H154.874V14.1256H150.565V9.41359H146.783L146.287 14.1256L143.59 14.3116V17.6906H146.008V25.4096C146.008 29.2846 147.589 31.8886 151.712 31.8886ZM158.436 31.4546H162.993V21.1316C163.954 18.6206 165.597 17.6906 166.93 17.6906C167.674 17.6906 168.139 17.8146 168.759 17.9696L169.534 14.0636C169.007 13.8156 168.449 13.6916 167.519 13.6916C165.721 13.6916 163.83 14.9006 162.59 17.1946H162.497L162.125 14.1256H158.436V31.4546ZM175.095 31.8886C177.079 31.8886 178.815 30.9276 180.334 29.6256H180.458L180.799 31.4546H184.519V21.3486C184.519 16.2956 182.256 13.6916 177.854 13.6916C175.095 13.6916 172.646 14.7146 170.6 15.9546L172.243 18.9926C173.824 18.0316 175.405 17.3496 177.017 17.3496C179.156 17.3496 179.869 18.6206 179.962 20.3256C172.987 21.1006 169.98 23.0536 169.98 26.7426C169.98 29.7186 171.995 31.8886 175.095 31.8886ZM176.583 28.3236C175.25 28.3236 174.32 27.7346 174.32 26.4016C174.32 24.8206 175.715 23.6736 179.962 23.1466V26.6496C178.846 27.7346 177.885 28.3236 176.583 28.3236ZM189.164 38.1196H193.721V32.8496L193.566 30.0286C194.868 31.2376 196.356 31.8886 197.844 31.8886C201.657 31.8886 205.222 28.4786 205.222 22.5266C205.222 17.1636 202.68 13.6916 198.402 13.6916C196.542 13.6916 194.744 14.6526 193.318 15.9236H193.225L192.853 14.1256H189.164V38.1196ZM196.852 28.1376C195.922 28.1376 194.806 27.8276 193.721 26.8666V19.2096C194.899 18.0006 195.953 17.4116 197.1 17.4116C199.518 17.4116 200.541 19.2406 200.541 22.5886C200.541 26.3396 198.929 28.1376 196.852 28.1376Z" fill="#7952B3"/>
</g>
<defs>
<filter id="filter0_d_307_165" x="0.873047" y="-3.14148" width="49.1133" height="54.2745" filterUnits="userSpaceOnUse" color-interpolation-filters="sRGB">
<feFlood flood-opacity="0" result="BackgroundImageFix"/>
<feColorMatrix in="SourceAlpha" type="matrix" values="0 0 0 0 0 0 0 0 0 0 0 0 0 0 0 0 0 0 127 0" result="hardAlpha"/>
<feOffset dy="4"/>
<feGaussianBlur stdDeviation="8"/>
<feColorMatrix type="matrix" values="0 0 0 0 0 0 0 0 0 0 0 0 0 0 0 0 0 0 0.15 0"/>
<feBlend mode="normal" in2="BackgroundImageFix" result="effect1_dropShadow_307_165"/>
<feBlend mode="normal" in="SourceGraphic" in2="effect1_dropShadow_307_165" result="shape"/>
</filter>
<linearGradient id="paint0_linear_307_165" x1="7.42959" y1="1.05863" x2="51.2532" y2="35.7099" gradientUnits="userSpaceOnUse">
<stop stop-color="#9013FE"/>
<stop offset="1" stop-color="#6610F2"/>
</linearGradient>
<linearGradient id="paint1_linear_307_165" x1="18.8972" y1="10.7588" x2="28.7201" y2="27.3067" gradientUnits="userSpaceOnUse">
<stop stop-color="white"/>
<stop offset="1" stop-color="#F1E5FC"/>
</linearGradient>
<clipPath id="clip0_307_165">
<rect width="206.364" height="40" fill="white"/>
</clipPath>
<clipPath id="clip1_307_165">
<rect width="50" height="40" fill="white"/>
</clipPath>
</defs>
</svg>
