<svg width="116" height="40" viewBox="0 0 116 40" fill="none" xmlns="http://www.w3.org/2000/svg">
<path d="M13.5 20C13.5 16.3557 16.4913 13.4012 20.1813 13.4012C23.8712 13.4012 26.8626 16.3557 26.8626 20C26.8626 23.6445 23.8712 26.5988 20.1813 26.5988C16.4913 26.5988 13.5 23.6445 13.5 20Z" fill="#1ABCFE"/>
<path d="M0.137451 33.1976C0.137451 29.5532 3.12876 26.5988 6.81873 26.5988H13.5V33.1976C13.5 36.842 10.5087 39.7964 6.81873 39.7964C3.12876 39.7964 0.137451 36.842 0.137451 33.1976Z" fill="#0ACF83"/>
<path d="M13.5 0.203613V13.4012H20.1813C23.8713 13.4012 26.8626 10.4468 26.8626 6.8024C26.8626 3.158 23.8713 0.203613 20.1813 0.203613H13.5Z" fill="#FF7262"/>
<path d="M0.137451 6.80241C0.137451 10.4468 3.12876 13.4012 6.81873 13.4012H13.5V0.203613H6.81873C3.12876 0.203613 0.137451 3.15799 0.137451 6.80241Z" fill="#F24E1E"/>
<path d="M0.137451 20C0.137451 23.6445 3.12876 26.5988 6.81873 26.5988H13.5V13.4012H6.81873C3.12876 13.4012 0.137451 16.3557 0.137451 20Z" fill="#A259FF"/>
<path d="M37 8.00145V31.1747L39.8463 31.1839V20.1485H46.709V17.2316H39.8463V10.9169H48.7839V8L37 8.00145Z" fill="black"/>
<path d="M53.9071 12.7055C54.9323 12.7055 55.7633 11.8349 55.7633 10.7609C55.7633 9.68691 54.9323 8.81628 53.9071 8.81628C52.8819 8.81628 52.0508 9.68691 52.0508 10.7609C52.0508 11.8349 52.8819 12.7055 53.9071 12.7055Z" fill="black"/>
<path d="M52.4592 15.6224V31.1793H55.3055V15.6224H52.4592Z" fill="black"/>
<path fill-rule="evenodd" clip-rule="evenodd" d="M65.8625 15.1687C62.0828 15.1687 59.4451 18.5174 59.4451 22.4934C59.4451 26.4693 62.0828 29.8181 65.8625 29.8181C67.5929 29.8181 69.019 29.1162 70.0569 27.9738V30.045C70.0569 32.6224 68.1242 34.7768 65.6018 34.7768C64.6952 34.7768 63.7943 34.4086 63.0767 33.8905L61.6505 36.4781C62.7895 37.2473 64.1459 37.6937 65.6018 37.6937C69.6343 37.6937 72.9032 34.2692 72.9032 30.045V15.6224H70.0569V17.013C69.019 15.8705 67.5929 15.1687 65.8625 15.1687ZM62.2914 22.4934C62.2914 20.0254 64.0935 18.0856 66.1719 18.0856C68.2505 18.0856 70.0525 20.0254 70.0525 22.4934C70.0525 24.9613 68.2505 26.9012 66.1719 26.9012C64.0935 26.9012 62.2914 24.9613 62.2914 22.4934Z" fill="black"/>
<path d="M83.1591 18.0856C81.4761 18.0856 80.1117 19.5797 80.1117 21.3428V31.1793H77.2654V15.6224H80.1117V17.0475C80.9457 15.9181 82.1744 15.1687 83.7778 15.1687C85.7723 15.1687 87.303 16.2064 88.1895 17.7946C89.1754 16.2606 90.7835 15.1687 92.719 15.1687C95.9585 15.1687 97.9749 17.9067 97.994 21.2942C97.994 21.3044 97.994 21.3146 97.994 21.325V21.3255V21.326V21.3266C97.994 21.332 97.994 21.3374 97.994 21.3428V31.1793H95.1477V21.3428C95.1477 19.5797 93.7833 18.0856 92.1003 18.0856C90.4171 18.0856 89.0528 19.5797 89.0528 21.3428V31.1793H86.2065V21.3428C86.2065 19.5797 84.8421 18.0856 83.1591 18.0856Z" fill="black"/>
<path fill-rule="evenodd" clip-rule="evenodd" d="M113.154 17.386C111.887 16.0162 110.153 15.1687 108.142 15.1687C103.907 15.1687 100.902 18.9244 100.902 23.4008C100.902 27.8773 103.907 31.633 108.142 31.633C110.153 31.633 111.887 30.7855 113.154 29.4158V31.1793H116V15.6224H113.154V17.386ZM103.748 23.4008C103.748 20.4311 105.919 18.0856 108.451 18.0856C110.983 18.0856 113.154 20.4311 113.154 23.4008C113.154 26.3707 110.983 28.7161 108.451 28.7161C105.919 28.7161 103.748 26.3707 103.748 23.4008Z" fill="black"/>
</svg>
