<svg width="41" height="41" viewBox="0 0 41 41" fill="none" xmlns="http://www.w3.org/2000/svg">
<path d="M20.7354 20.3798C20.7354 16.698 23.7574 13.7131 27.4854 13.7131C31.2132 13.7131 34.2354 16.698 34.2354 20.3798C34.2354 24.0617 31.2132 27.0465 27.4854 27.0465C23.7574 27.0465 20.7354 24.0617 20.7354 20.3798Z" fill="#1ABCFE"/>
<path d="M7.23535 33.7131C7.23535 30.0312 10.2574 27.0464 13.9854 27.0464H20.7353V33.7131C20.7353 37.395 17.7133 40.3797 13.9854 40.3797C10.2574 40.3797 7.23535 37.395 7.23535 33.7131Z" fill="#0ACF83"/>
<path d="M20.7354 0.379761V13.7131H27.4854C31.2133 13.7131 34.2354 10.7283 34.2354 7.04642C34.2354 3.36453 31.2133 0.379761 27.4854 0.379761H20.7354Z" fill="#FF7262"/>
<path d="M7.23535 7.04643C7.23535 10.7283 10.2574 13.7131 13.9854 13.7131H20.7353V0.379761H13.9854C10.2574 0.379761 7.23535 3.36453 7.23535 7.04643Z" fill="#F24E1E"/>
<path d="M7.23535 20.3798C7.23535 24.0617 10.2574 27.0465 13.9854 27.0465H20.7353V13.7131H13.9854C10.2574 13.7131 7.23535 16.698 7.23535 20.3798Z" fill="#A259FF"/>
</svg>
