<svg width="41" height="41" viewBox="0 0 41 41" fill="none" xmlns="http://www.w3.org/2000/svg">
<rect x="1" y="0.879761" width="39" height="39" rx="1.5" stroke="#FFAB7B"/>
<rect x="4" y="3.87976" width="33" height="33" rx="1.5" fill="#FFAB7B" stroke="#FFAB7B"/>
<path d="M8.904 29.3798H12.504L15.048 20.1398C15.576 18.2918 16.08 16.2518 16.56 14.3318H16.656C17.16 16.2278 17.664 18.2918 18.192 20.1398L20.736 29.3798H24.456L18.768 11.6198H14.592L8.904 29.3798ZM12.432 24.8198H20.88V22.0838H12.432V24.8198ZM26.271 29.3798H29.799V15.9638H26.271V29.3798ZM28.023 13.7798C29.247 13.7798 30.087 13.0118 30.087 11.8358C30.087 10.6838 29.247 9.93976 28.023 9.93976C26.799 9.93976 25.983 10.6838 25.983 11.8358C25.983 13.0118 26.799 13.7798 28.023 13.7798Z" fill="white"/>
</svg>
