<svg width="16" height="16" viewBox="0 0 16 16" fill="none" xmlns="http://www.w3.org/2000/svg">
<path d="M7.99683 1.44156C10.1333 1.44156 10.3841 1.45108 11.2286 1.48918C12.0095 1.52411 12.4317 1.6543 12.7143 1.76543C13.0889 1.91149 13.3556 2.08295 13.6349 2.36237C13.9143 2.64179 14.0889 2.90851 14.2317 3.28319C14.3397 3.56579 14.473 3.98809 14.5079 4.7692C14.546 5.61381 14.5556 5.86466 14.5556 8.00159C14.5556 10.1385 14.546 10.3894 14.5079 11.234C14.473 12.0151 14.3429 12.4374 14.2317 12.72C14.0857 13.0947 13.9143 13.3614 13.6349 13.6408C13.3556 13.9202 13.0889 14.0949 12.7143 14.2377C12.4317 14.3457 12.0095 14.4791 11.2286 14.514C10.3841 14.5521 10.1333 14.5616 7.99683 14.5616C5.86032 14.5616 5.60952 14.5521 4.76508 14.514C3.98413 14.4791 3.56191 14.3489 3.27937 14.2377C2.90476 14.0917 2.6381 13.9202 2.35873 13.6408C2.07937 13.3614 1.90476 13.0947 1.7619 12.72C1.65397 12.4374 1.52064 12.0151 1.48571 11.234C1.44762 10.3894 1.4381 10.1385 1.4381 8.00159C1.4381 5.86466 1.44762 5.61381 1.48571 4.7692C1.52064 3.98809 1.65079 3.56579 1.7619 3.28319C1.90794 2.90851 2.07937 2.64179 2.35873 2.36237C2.6381 2.08295 2.90476 1.90832 3.27937 1.76543C3.56191 1.65747 3.98413 1.52411 4.76508 1.48918C5.60952 1.44791 5.86349 1.44156 7.99683 1.44156ZM7.99683 0C5.8254 0 5.55238 0.0095257 4.69841 0.0476285C3.84762 0.0857313 3.26667 0.222266 2.75873 0.419131C2.23175 0.622346 1.7873 0.898591 1.34286 1.34312C0.898413 1.78766 0.625397 2.23536 0.419048 2.75928C0.222222 3.26732 0.0857143 3.84838 0.0476191 4.70252C0.00952381 5.55348 0 5.82655 0 7.99841C0 10.1703 0.00952381 10.4433 0.0476191 11.2975C0.0857143 12.1484 0.222222 12.7295 0.419048 13.2407C0.622222 13.7678 0.898413 14.2123 1.34286 14.6569C1.7873 15.1014 2.23492 15.3745 2.75873 15.5809C3.26667 15.7777 3.84762 15.9143 4.70159 15.9524C5.55556 15.9905 5.8254 16 8 16C10.1746 16 10.4444 15.9905 11.2984 15.9524C12.1492 15.9143 12.7302 15.7777 13.2413 15.5809C13.7683 15.3777 14.2127 15.1014 14.6571 14.6569C15.1016 14.2123 15.3746 13.7646 15.581 13.2407C15.7778 12.7327 15.9143 12.1516 15.9524 11.2975C15.9905 10.4433 16 10.1734 16 7.99841C16 5.82338 15.9905 5.55348 15.9524 4.69935C15.9143 3.84838 15.7778 3.26732 15.581 2.7561C15.3778 2.22901 15.1016 1.78448 14.6571 1.33995C14.2127 0.895416 13.7651 0.622346 13.2413 0.415956C12.7333 0.219091 12.1524 0.0825561 11.2984 0.0444533C10.4413 0.0095257 10.1683 0 7.99683 0Z" fill="#999999"/>
<path d="M7.99685 3.89282C5.73018 3.89282 3.88892 5.73128 3.88892 8.00157C3.88892 10.2719 5.72701 12.1103 7.99685 12.1103C10.2667 12.1103 12.1048 10.2719 12.1048 8.00157C12.1048 5.73128 10.2667 3.89282 7.99685 3.89282ZM7.99685 10.6656C6.52383 10.6656 5.33018 9.4717 5.33018 7.9984C5.33018 6.52509 6.52383 5.3312 7.99685 5.3312C9.46987 5.3312 10.6635 6.52509 10.6635 7.9984C10.6635 9.4717 9.46987 10.6656 7.99685 10.6656Z" fill="#999999"/>
<path d="M12.2666 4.68664C12.7961 4.68664 13.2253 4.25732 13.2253 3.72772C13.2253 3.19812 12.7961 2.7688 12.2666 2.7688C11.7371 2.7688 11.3079 3.19812 11.3079 3.72772C11.3079 4.25732 11.7371 4.68664 12.2666 4.68664Z" fill="#999999"/>
</svg>
