<svg width="14" height="17" viewBox="0 0 14 17" fill="none" xmlns="http://www.w3.org/2000/svg">
<path fill-rule="evenodd" clip-rule="evenodd" d="M3.89015 12.3366C5.17105 13.522 6.40419 14.6632 6.82422 16.0286C7.24352 14.6653 8.47591 13.5246 9.75647 12.3393C11.4959 10.7294 13.3242 9.03712 13.3242 6.59294C13.3242 2.96753 10.4141 0.0285645 6.82422 0.0285645C3.23437 0.0285645 0.324219 2.96753 0.324219 6.59293C0.324219 9.03654 2.1512 10.7273 3.89015 12.3366ZM6.82433 9.16306C8.40961 9.16306 9.69474 7.86521 9.69474 6.26422C9.69474 4.66324 8.40961 3.36539 6.82433 3.36539C5.23905 3.36539 3.95392 4.66324 3.95392 6.26422C3.95392 7.86521 5.23905 9.16306 6.82433 9.16306Z" fill="#999999"/>
</svg>
