<svg width="197" height="40" viewBox="0 0 197 40" fill="none" xmlns="http://www.w3.org/2000/svg">
<path fill-rule="evenodd" clip-rule="evenodd" d="M3.45636 0C2.67229 0 1.92032 0.311473 1.3659 0.865899C0.811473 1.42032 0.5 2.17229 0.5 2.95636L0.5 37.0436C0.5 37.8277 0.811473 38.5797 1.3659 39.1341C1.92032 39.6885 2.67229 40 3.45636 40H36.99C37.7741 40 38.526 39.6885 39.0805 39.1341C39.6349 38.5797 39.9464 37.8277 39.9464 37.0436V2.95636C39.9464 2.17229 39.6349 1.42032 39.0805 0.865899C38.526 0.311473 37.7741 0 36.99 0L3.45636 0ZM32.2273 10.15C32.3873 9.05182 31.64 8.03182 30.5573 7.86909C26.4709 7.25636 22.5991 10.9382 18.4691 18.9127C15.2264 25.1745 12.31 28.3218 10.3236 28.1727C9.23273 28.0909 8.28273 28.9218 8.20182 30.0273C8.12182 31.1336 8.94091 32.0973 10.0318 32.1791C14.0527 32.48 17.8727 28.7045 21.9773 20.78C25.1909 14.5736 28.0618 11.5555 29.9782 11.8436C31.06 12.0045 32.0673 11.2473 32.2273 10.1491V10.15Z" fill="url(#paint0_linear_306_137)"/>
<path fill-rule="evenodd" clip-rule="evenodd" d="M49.31 31.5453V8.45443H53.8964V27.479H63.9664V31.5435H49.3091L49.31 31.5453ZM74.1645 31.8372C69.1618 31.8372 65.8264 28.3581 65.8264 23.6099C65.8264 18.8617 69.1618 15.4144 74.1645 15.4144C79.0391 15.4144 82.4709 18.7326 82.4709 23.6099C82.4709 28.4553 79.0391 31.8372 74.1645 31.8372ZM74.1645 28.0008C76.41 28.0008 78.2054 26.2117 78.2054 23.6099C78.2054 21.0081 76.4736 19.219 74.1645 19.219C71.7273 19.219 70.0918 21.1063 70.0918 23.6099C70.0918 26.0817 71.7591 28.0008 74.1645 28.0008ZM89.8145 31.8372C87.1209 31.8372 85.3573 30.1135 85.3573 26.5372V19.1872H83.4964V15.6417H85.3573V10.4726L89.5573 10.0181V15.6435H93.7909V19.1881H89.5582V25.9199C89.5582 27.3181 89.9109 27.969 90.9045 27.969C91.4182 27.969 92.1882 27.7735 92.8936 27.4153L93.9518 30.8299C92.9573 31.3835 91.9309 31.839 89.8155 31.839L89.8145 31.8372ZM101.648 31.8372C98.9545 31.8372 97.1909 30.1135 97.1909 26.5372V19.1872H95.3309V15.6417H97.1909V10.4726L101.392 10.0181V15.6435H105.625V19.1881H101.392V25.9199C101.392 27.3181 101.745 27.969 102.739 27.969C103.252 27.969 104.022 27.7735 104.727 27.4153L105.785 30.8299C104.791 31.3835 103.765 31.839 101.648 31.839V31.8372ZM110.981 13.4963C109.441 13.4963 108.319 12.3253 108.319 10.8617C108.319 9.4308 109.441 8.25989 110.981 8.25989C112.488 8.25989 113.643 9.4308 113.643 10.8617C113.643 12.3253 112.488 13.4963 110.981 13.4963ZM108.832 31.5444V15.6426H113.033V31.5444H108.832ZM131.025 23.4472C131.025 23.9672 130.96 24.7153 130.928 24.9753H119.928C120.441 26.8944 121.948 28.0326 124.065 28.0326C125.829 28.0326 127.047 27.2844 127.882 26.2444L130.607 28.8135C129.293 30.5363 127.272 31.8372 123.776 31.8372C118.966 31.8372 115.566 28.5526 115.566 23.5772C115.566 18.7317 118.87 15.4144 123.52 15.4144C127.945 15.4144 131.025 18.7963 131.025 23.4472ZM123.488 19.1217C121.788 19.1217 120.441 20.0981 119.96 21.919H126.855C126.438 20.2281 125.315 19.1217 123.488 19.1217Z" fill="#18C8CA"/>
<path fill-rule="evenodd" clip-rule="evenodd" d="M160.273 31.5456V7.60925H164.474V31.5456H160.273ZM154.788 13.4965C153.249 13.4965 152.126 12.3256 152.126 10.862C152.126 9.43107 153.249 8.26107 154.788 8.26107C156.295 8.26107 157.45 9.43107 157.45 10.862C157.45 12.3256 156.295 13.4965 154.788 13.4965ZM134.039 31.5456V8.45471H149.144V12.5202H138.497V18.6993H147.38V22.7965H138.497V31.5456H134.039ZM152.64 15.6429V31.5447H156.841V15.6429H152.64ZM182.368 24.9765C182.425 24.4687 182.457 23.9584 182.465 23.4474C182.465 18.7974 179.386 15.4147 174.96 15.4147C170.31 15.4147 167.007 18.7329 167.007 23.5783C167.007 28.5538 170.406 31.8383 175.217 31.8383C178.713 31.8383 180.733 30.5374 182.047 28.8138L179.322 26.2447C178.488 27.2847 177.269 28.0329 175.505 28.0329C173.389 28.0329 171.882 26.8947 171.368 24.9765H182.368ZM174.928 19.122C173.228 19.122 171.882 20.0983 171.401 21.9193H178.295C177.878 20.2283 176.756 19.122 174.928 19.122ZM184.453 29.4965C186.153 30.992 188.301 31.8383 190.803 31.8383C194.907 31.8383 196.864 29.692 196.864 26.8947C196.864 23.7402 194.875 22.992 191.476 21.7238C189.937 21.1383 189.167 20.6829 189.167 20.0329C189.167 19.1874 190.001 18.862 190.643 18.862C191.797 18.862 193.208 19.3829 194.395 20.5529L196.447 17.3983C194.651 16.0002 192.887 15.4147 190.739 15.4147C187.5 15.4147 185.062 17.2693 185.062 20.1302C185.062 23.2202 187.307 24.4556 189.905 25.3338C191.925 26.0165 192.727 26.3747 192.727 27.0574C192.727 27.8374 192.054 28.3574 190.835 28.3574C189.103 28.3574 187.756 27.7402 186.474 26.5374L184.453 29.4965Z" fill="#006B78"/>
<defs>
<linearGradient id="paint0_linear_306_137" x1="-11.7591" y1="23.2482" x2="26.2745" y2="47.6264" gradientUnits="userSpaceOnUse">
<stop stop-color="#2BEAED"/>
<stop offset="1" stop-color="#0FCCCE"/>
</linearGradient>
</defs>
</svg>
