<svg width="41" height="41" viewBox="0 0 41 41" fill="none" xmlns="http://www.w3.org/2000/svg">
<rect x="1.05884" y="0.879761" width="39" height="39" rx="1.5" stroke="#035C9D"/>
<rect x="3.55884" y="3.37976" width="34" height="34" rx="2" fill="#035C9D"/>
<path d="M9.74284 29.3798H13.2948V23.0678H15.6708C19.4868 23.0678 22.5108 21.2678 22.5108 17.2118C22.5108 12.9878 19.4868 11.6198 15.5748 11.6198H9.74284V29.3798ZM13.2948 20.2598V14.4518H15.3108C17.7588 14.4518 19.0548 15.1238 19.0548 17.2118C19.0548 19.2278 17.8788 20.2598 15.4308 20.2598H13.2948ZM27.3442 29.7158C30.8242 29.7158 32.6722 27.8438 32.6722 25.4678C32.6722 22.9958 30.7282 22.0838 28.9522 21.4118C27.5122 20.9078 26.2882 20.5238 26.2882 19.5638C26.2882 18.7718 26.8402 18.2438 28.0642 18.2438C29.0482 18.2438 30.0082 18.7238 30.9442 19.3958L32.5522 17.2838C31.4482 16.4198 29.9122 15.6278 27.9682 15.6278C24.8962 15.6278 22.9762 17.3318 22.9762 19.7078C22.9762 21.9878 24.8722 22.9958 26.5762 23.6678C27.9682 24.1958 29.3842 24.6758 29.3842 25.6598C29.3842 26.4998 28.7602 27.0998 27.4162 27.0998C26.1682 27.0998 25.0402 26.5478 23.8162 25.6118L22.2322 27.8438C23.5522 28.9478 25.5442 29.7158 27.3442 29.7158Z" fill="white"/>
</svg>
