<svg width="187" height="40" viewBox="0 0 187 40" fill="none" xmlns="http://www.w3.org/2000/svg">
<path fill-rule="evenodd" clip-rule="evenodd" d="M10.2122 39.0697L0.930176 0.930176L38.1395 11.8035L10.2122 39.0697Z" stroke="black" stroke-miterlimit="10" stroke-linejoin="round"/>
<path fill-rule="evenodd" clip-rule="evenodd" d="M18.6155 6.5116L23.2558 25.1162L4.65112 19.8121L18.6155 6.5116Z" stroke="black" stroke-miterlimit="10" stroke-linejoin="round"/>
<path fill-rule="evenodd" clip-rule="evenodd" d="M14.4125 22.3256L12.093 13.0233L21.3953 15.6656L14.4125 22.3256Z" stroke="black" stroke-miterlimit="10" stroke-linejoin="round"/>
<path fill-rule="evenodd" clip-rule="evenodd" d="M9.77357 3.72095L12.0931 13.0233L2.79077 10.381L9.77357 3.72095Z" stroke="black" stroke-miterlimit="10" stroke-linejoin="round"/>
<path fill-rule="evenodd" clip-rule="evenodd" d="M28.3781 9.30237L30.6976 18.6047L21.3953 15.9624L28.3781 9.30237Z" stroke="black" stroke-miterlimit="10" stroke-linejoin="round"/>
<path fill-rule="evenodd" clip-rule="evenodd" d="M15.3549 22.3256L17.6744 31.6279L8.37207 28.9856L15.3549 22.3256Z" stroke="black" stroke-miterlimit="10" stroke-linejoin="round"/>
<path d="M60.437 11.625H57.894V15.207H54.0112V17.1621H57.894V25.2012C57.894 26.1126 58.0125 26.8919 58.2495 27.5391C58.4956 28.1771 58.8283 28.6966 59.2476 29.0977C59.6668 29.5078 60.159 29.8086 60.7241 30C61.2983 30.1823 61.9136 30.2734 62.5698 30.2734C62.9618 30.2734 63.3537 30.2552 63.7456 30.2188C64.1466 30.1823 64.5249 30.1276 64.8804 30.0547C65.2358 29.9909 65.564 29.9134 65.8647 29.8223C66.1655 29.722 66.4207 29.6081 66.6304 29.4805L66.2749 27.6895C66.12 27.7259 65.9194 27.7715 65.6733 27.8262C65.4364 27.8717 65.1812 27.9173 64.9077 27.9629C64.6252 28.0085 64.3381 28.0495 64.0464 28.0859C63.7547 28.1133 63.4722 28.127 63.1987 28.127C62.825 28.127 62.4696 28.0814 62.1323 27.9902C61.8042 27.8991 61.5125 27.7396 61.2573 27.5117C61.0021 27.293 60.8016 26.9967 60.6558 26.623C60.5099 26.2493 60.437 25.7754 60.437 25.2012V17.1621H66.0698V15.207H60.437V11.625ZM73.7944 17.4082V9H71.2651V30H73.7944V19.2539C73.9767 18.9622 74.1818 18.6979 74.4097 18.4609C74.6466 18.2148 74.9019 18.0007 75.1753 17.8184C75.5216 17.5814 75.8999 17.3991 76.3101 17.2715C76.7202 17.1439 77.1532 17.0801 77.6089 17.0801C78.1649 17.071 78.6571 17.1484 79.0854 17.3125C79.5138 17.4674 79.8693 17.7044 80.1519 18.0234C80.4162 18.3151 80.6167 18.6842 80.7534 19.1309C80.8901 19.5684 80.9585 20.0788 80.9585 20.6621V30H83.4878V20.6895C83.4878 19.696 83.3647 18.8392 83.1187 18.1191C82.8817 17.39 82.5399 16.7884 82.0933 16.3145C81.6466 15.8405 81.1043 15.4941 80.4663 15.2754C79.8374 15.0475 79.1356 14.9336 78.3608 14.9336C77.7684 14.9427 77.2078 15.0293 76.6792 15.1934C76.1597 15.3574 75.6812 15.599 75.2437 15.918C74.9702 16.1094 74.7104 16.3327 74.4644 16.5879C74.2183 16.834 73.995 17.1074 73.7944 17.4082ZM97.7749 14.9336C96.6994 14.9336 95.7378 15.1706 94.8901 15.6445C94.0516 16.1094 93.3315 16.7474 92.73 17.5586L92.7163 17.1895L92.6069 15.207H90.2007V30H92.7437V20.5117C92.9077 20.056 93.1128 19.6458 93.3589 19.2812C93.6141 18.9076 93.9103 18.5931 94.2476 18.3379C94.6213 18.0462 95.0588 17.8275 95.5601 17.6816C96.0614 17.5267 96.6219 17.4492 97.2417 17.4492C97.7248 17.4492 98.1851 17.4766 98.6226 17.5312C99.0692 17.5768 99.5386 17.6543 100.031 17.7637L100.373 15.2891C100.117 15.1797 99.7345 15.0931 99.2241 15.0293C98.7228 14.9655 98.2397 14.9336 97.7749 14.9336ZM111.433 30.2734C112.873 30.2734 114.081 29.9863 115.056 29.4121C116.041 28.8288 116.779 28.1634 117.271 27.416L115.726 26.2129C115.261 26.8145 114.678 27.2975 113.976 27.6621C113.274 28.0267 112.472 28.209 111.57 28.209C110.886 28.209 110.262 28.0814 109.697 27.8262C109.132 27.571 108.649 27.2201 108.248 26.7734C107.856 26.3542 107.546 25.8711 107.318 25.3242C107.099 24.7773 106.958 24.1439 106.894 23.4238V23.3281H117.462V22.1934C117.462 21.1634 117.33 20.2064 117.066 19.3223C116.811 18.4382 116.419 17.668 115.89 17.0117C115.361 16.3646 114.696 15.8587 113.894 15.4941C113.101 15.1204 112.171 14.9336 111.105 14.9336C110.257 14.9336 109.428 15.1068 108.617 15.4531C107.815 15.7995 107.099 16.2962 106.47 16.9434C105.832 17.5996 105.322 18.4017 104.939 19.3496C104.556 20.2884 104.365 21.3548 104.365 22.5488V23.123C104.365 24.153 104.538 25.1055 104.884 25.9805C105.231 26.8555 105.714 27.612 106.333 28.25C106.953 28.888 107.696 29.3848 108.562 29.7402C109.437 30.0957 110.394 30.2734 111.433 30.2734ZM111.105 17.0117C111.752 17.0117 112.308 17.1302 112.773 17.3672C113.247 17.6042 113.639 17.9141 113.949 18.2969C114.259 18.6797 114.5 19.1354 114.673 19.6641C114.847 20.1836 114.933 20.6712 114.933 21.127V21.25H106.976C107.076 20.5664 107.25 19.9648 107.496 19.4453C107.751 18.9167 108.061 18.4701 108.425 18.1055C108.79 17.75 109.2 17.4811 109.656 17.2988C110.111 17.1074 110.595 17.0117 111.105 17.0117ZM128.25 30.2734C129.69 30.2734 130.897 29.9863 131.873 29.4121C132.857 28.8288 133.595 28.1634 134.087 27.416L132.542 26.2129C132.078 26.8145 131.494 27.2975 130.792 27.6621C130.091 28.0267 129.289 28.209 128.386 28.209C127.703 28.209 127.078 28.0814 126.513 27.8262C125.948 27.571 125.465 27.2201 125.064 26.7734C124.672 26.3542 124.362 25.8711 124.134 25.3242C123.916 24.7773 123.774 24.1439 123.71 23.4238V23.3281H134.279V22.1934C134.279 21.1634 134.147 20.2064 133.882 19.3223C133.627 18.4382 133.235 17.668 132.707 17.0117C132.178 16.3646 131.513 15.8587 130.71 15.4941C129.917 15.1204 128.988 14.9336 127.921 14.9336C127.074 14.9336 126.244 15.1068 125.433 15.4531C124.631 15.7995 123.916 16.2962 123.287 16.9434C122.649 17.5996 122.138 18.4017 121.755 19.3496C121.373 20.2884 121.181 21.3548 121.181 22.5488V23.123C121.181 24.153 121.354 25.1055 121.701 25.9805C122.047 26.8555 122.53 27.612 123.15 28.25C123.77 28.888 124.513 29.3848 125.378 29.7402C126.253 30.0957 127.21 30.2734 128.25 30.2734ZM127.921 17.0117C128.569 17.0117 129.125 17.1302 129.589 17.3672C130.063 17.6042 130.455 17.9141 130.765 18.2969C131.075 18.6797 131.317 19.1354 131.49 19.6641C131.663 20.1836 131.75 20.6712 131.75 21.127V21.25H123.792C123.893 20.5664 124.066 19.9648 124.312 19.4453C124.567 18.9167 124.877 18.4701 125.242 18.1055C125.606 17.75 126.016 17.4811 126.472 17.2988C126.928 17.1074 127.411 17.0117 127.921 17.0117ZM142.933 28.3594C142.933 28.888 143.097 29.3392 143.425 29.7129C143.763 30.0775 144.259 30.2598 144.916 30.2598C145.563 30.2598 146.059 30.0775 146.406 29.7129C146.752 29.3483 146.925 28.8971 146.925 28.3594C146.925 27.8125 146.752 27.3522 146.406 26.9785C146.069 26.5957 145.572 26.4043 144.916 26.4043C144.25 26.4043 143.753 26.5957 143.425 26.9785C143.097 27.3613 142.933 27.8216 142.933 28.3594ZM157.056 15.207V17.4082H161.992V30.0957C161.992 30.7975 161.901 31.3854 161.718 31.8594C161.545 32.3424 161.304 32.7298 160.994 33.0215C160.684 33.3132 160.319 33.5182 159.9 33.6367C159.481 33.7643 159.034 33.8281 158.56 33.8281C158.432 33.8281 158.255 33.8236 158.027 33.8145C157.808 33.8145 157.58 33.8053 157.343 33.7871C157.097 33.778 156.856 33.7598 156.619 33.7324C156.382 33.7142 156.186 33.6914 156.031 33.6641L155.853 35.7422C156.081 35.7786 156.3 35.8105 156.509 35.8379C156.719 35.8743 156.929 35.9017 157.138 35.9199C157.393 35.9382 157.653 35.9518 157.917 35.9609C158.182 35.9701 158.455 35.9746 158.738 35.9746C159.649 35.9746 160.46 35.8424 161.171 35.5781C161.891 35.3229 162.502 34.9447 163.003 34.4434C163.496 33.9512 163.869 33.3405 164.125 32.6113C164.389 31.8822 164.521 31.0436 164.521 30.0957V15.207H157.056ZM161.636 11.3105C161.636 11.7207 161.759 12.0671 162.005 12.3496C162.251 12.623 162.63 12.7598 163.14 12.7598C163.651 12.7598 164.033 12.623 164.289 12.3496C164.544 12.0671 164.671 11.7207 164.671 11.3105C164.671 10.9004 164.544 10.554 164.289 10.2715C164.033 9.97982 163.651 9.83398 163.14 9.83398C162.63 9.83398 162.251 9.97982 162.005 10.2715C161.759 10.554 161.636 10.9004 161.636 11.3105ZM181.994 26.0762C181.994 26.3132 181.948 26.5365 181.857 26.7461C181.766 26.9557 181.634 27.1471 181.46 27.3203C181.178 27.6029 180.786 27.8262 180.285 27.9902C179.783 28.1452 179.195 28.2227 178.521 28.2227C178.093 28.2227 177.66 28.1771 177.222 28.0859C176.785 27.9948 176.388 27.8398 176.033 27.6211C175.668 27.4023 175.363 27.1152 175.117 26.7598C174.88 26.4043 174.743 25.9668 174.707 25.4473H172.177C172.177 26.0762 172.319 26.6823 172.601 27.2656C172.893 27.849 173.312 28.3594 173.859 28.7969C174.397 29.2435 175.057 29.6035 175.841 29.877C176.625 30.1413 177.518 30.2734 178.521 30.2734C179.396 30.2734 180.203 30.1686 180.941 29.959C181.679 29.7493 182.313 29.4531 182.841 29.0703C183.37 28.6875 183.78 28.2272 184.072 27.6895C184.373 27.1517 184.523 26.5547 184.523 25.8984C184.523 25.2878 184.391 24.75 184.126 24.2852C183.871 23.8203 183.498 23.4102 183.005 23.0547C182.513 22.7083 181.907 22.4121 181.187 22.166C180.467 21.9108 179.651 21.6875 178.74 21.4961C178.047 21.3594 177.473 21.2181 177.017 21.0723C176.57 20.9264 176.215 20.7624 175.951 20.5801C175.677 20.3978 175.486 20.1927 175.376 19.9648C175.267 19.737 175.212 19.4772 175.212 19.1855C175.212 18.903 175.281 18.6296 175.417 18.3652C175.554 18.1009 175.759 17.8685 176.033 17.668C176.297 17.4674 176.63 17.3079 177.031 17.1895C177.441 17.071 177.915 17.0117 178.453 17.0117C178.972 17.0117 179.437 17.0846 179.847 17.2305C180.266 17.3763 180.622 17.5677 180.914 17.8047C181.205 18.0417 181.433 18.3151 181.597 18.625C181.761 18.9258 181.843 19.2357 181.843 19.5547H184.373C184.373 18.9076 184.231 18.306 183.949 17.75C183.675 17.1849 183.283 16.6927 182.773 16.2734C182.263 15.8542 181.643 15.526 180.914 15.2891C180.184 15.0521 179.364 14.9336 178.453 14.9336C177.605 14.9336 176.826 15.0475 176.115 15.2754C175.413 15.5033 174.807 15.8132 174.296 16.2051C173.786 16.597 173.389 17.0573 173.107 17.5859C172.824 18.1055 172.683 18.666 172.683 19.2676C172.683 19.8783 172.82 20.416 173.093 20.8809C173.367 21.3366 173.754 21.7331 174.255 22.0703C174.748 22.4167 175.34 22.7129 176.033 22.959C176.735 23.2051 177.509 23.4147 178.357 23.5879C179.05 23.7246 179.628 23.8796 180.093 24.0527C180.558 24.2168 180.932 24.3991 181.214 24.5996C181.497 24.8001 181.697 25.0234 181.816 25.2695C181.934 25.5065 181.994 25.7754 181.994 26.0762Z" fill="black"/>
</svg>
