<svg width="41" height="41" viewBox="0 0 41 41" fill="none" xmlns="http://www.w3.org/2000/svg">
<rect x="1.17627" y="0.879761" width="39" height="39" rx="1.5" stroke="#D24DB5"/>
<rect x="3.67627" y="3.37976" width="34" height="34" rx="2" fill="#D24DB5"/>
<path d="M7.01227 29.3798H10.7803L12.6763 25.4438C13.0843 24.5318 13.5163 23.6198 13.9483 22.5158H14.0443C14.5723 23.6198 15.0043 24.5318 15.4603 25.4438L17.4523 29.3798H21.3883L16.3723 20.4038L21.0523 11.6198H17.3083L15.6283 15.2918C15.2443 16.1318 14.8843 16.9958 14.4523 18.0998H14.3563C13.8283 16.9958 13.4443 16.1318 13.0123 15.2918L11.2363 11.6198H7.30027L12.0043 20.2358L7.01227 29.3798ZM26.2715 29.7158C27.6635 29.7158 29.0075 28.9718 29.9915 27.9878H30.0635L30.3275 29.3798H33.2075V10.2518H29.6795V14.9558L29.8235 17.0678C28.8395 16.1798 27.9035 15.6278 26.3915 15.6278C23.5115 15.6278 20.7515 18.2918 20.7515 22.6838C20.7515 27.0998 22.9115 29.7158 26.2715 29.7158ZM27.1595 26.8118C25.4075 26.8118 24.3755 25.4438 24.3755 22.6358C24.3755 19.9478 25.6715 18.5078 27.1835 18.5078C28.0235 18.5078 28.8875 18.7958 29.6795 19.5398V25.4438C28.9115 26.4278 28.1195 26.8118 27.1595 26.8118Z" fill="white"/>
</svg>
